<svg xmlns="http://www.w3.org/2000/svg" xmlns:xlink="http://www.w3.org/1999/xlink" viewBox="0 0 1200 1200"><defs><style>.cls-1,.cls-30{fill:none;}.cls-2{isolation:isolate;}.cls-3{fill:#ebe9f0;}.cls-4{fill:#fff;}.cls-5{fill:#231f20;}.cls-6{fill:#410d13;}.cls-7{fill:#4f1a26;}.cls-8{fill:#eaeaea;}.cls-9{fill:#541225;}.cls-10{fill:#2d0409;}.cls-11{fill:#fef84e;}.cls-12{fill:#4c9012;}.cls-13{fill:#db8378;}.cls-14{fill:#e3e6e8;}.cls-15{fill:#a7a7a7;}.cls-16{fill:#fffeff;}.cls-17{fill:#d65839;}.cls-18{fill:#aad1e7;}.cls-19{fill:#4f84a0;}.cls-20{fill:#fbf9f9;}.cls-21{clip-path:url(#clip-path);}.cls-22{fill:#1e57b1;}.cls-23{fill:#f887ba;}.cls-24{fill:#f4f4a2;}.cls-25{clip-path:url(#clip-path-2);}.cls-26{fill:#fed34c;}.cls-27{clip-path:url(#clip-path-3);}.cls-28{fill:#9ebbeb;}.cls-29{fill:#2d0426;}.cls-30{stroke:#eaeaea;stroke-width:0.61px;}.cls-30,.cls-60{stroke-miterlimit:10;}.cls-31{fill:#70c3e0;}.cls-32{fill:#99d9f6;}.cls-33{fill:#c9cac9;}.cls-34{fill:#979897;}.cls-35{fill:#838483;}.cls-36{fill:#f184b4;}.cls-37{fill:#292664;}.cls-38{fill:#181720;}.cls-39{fill:#df7ba7;}.cls-40{fill:#231e54;}.cls-41{fill:#262432;}.cls-42{fill:#1a4b96;}.cls-43{fill:#ecec9d;}.cls-44{fill:#e2e3e4;}.cls-45{fill:#9298a2;}.cls-46,.cls-60{fill:#f184b5;}.cls-47{fill:#1a4b97;}.cls-48{fill:#1a4b98;}.cls-49{fill:#f485b7;}.cls-50{fill:#95b0dd;}.cls-51{fill:#0d096c;}.cls-52{fill:#18161f;}.cls-53{fill:#e6d3c4;}.cls-54{fill:#d4bca9;}.cls-55{fill:#d5bca9;}.cls-56{fill:#fdd24c;}.cls-57{fill:#e17ba9;}.cls-58{fill:#0b0759;}.cls-59{fill:#2b2a30;}.cls-60{stroke:#1a4b97;stroke-width:1.38px;}.cls-61{mix-blend-mode:soft-light;fill:url(#linear-gradient);}</style><clipPath id="clip-path"><rect class="cls-1" x="547.45" y="552.05" width="36.36" height="36.55"/></clipPath><clipPath id="clip-path-2"><rect class="cls-1" x="547.19" y="622.16" width="37.13" height="37.13"/></clipPath><clipPath id="clip-path-3"><rect class="cls-1" x="546.86" y="711.21" width="37.46" height="34.76" transform="translate(1131.19 1457.18) rotate(180)"/></clipPath><linearGradient id="linear-gradient" x1="602.57" y1="908.29" x2="544.84" y2="243.57" gradientUnits="userSpaceOnUse"><stop offset="0" stop-color="#c57db2"/><stop offset="1" stop-color="#56bc80"/></linearGradient></defs><g class="cls-2"><g id="Layer_1" data-name="Layer 1"><path class="cls-3" d="M128.93,789.69c-22.79-57.61-9-132.7,43.4-165.71,22-13.84,49.93-20.53,64.83-41.82,33.06-52.56-30.69-147.57-22.66-216C211,250,252,198.31,393.91,188.13s233.52,74.94,265.74,93.75C730.26,323.1,822.13,279.2,901,300.64,971.17,319.7,1020.49,396.19,1008.9,468c-9.45,58.49-53.5,112.47-41.85,170.56,30.9,106,199.69,160.38,60,285.72-73,51.6-168,33.79-252.07,38.61-60.37,3.67-119.25,19.28-178.35,32.12-120.09,32-253.31,27.64-339.43-71.71C209.44,879.05,154.62,854.63,128.93,789.69Z"/><rect class="cls-4" x="530.32" y="470.4" width="402.66" height="441.66" rx="9.59"/><rect class="cls-5" x="355.21" y="474.55" width="0.85" height="436.32"/><path class="cls-6" d="M931.75,449.5v25.05H304.31V449.5a9.39,9.39,0,0,1,9.39-9.4H922.35A9.4,9.4,0,0,1,931.75,449.5Z"/><rect class="cls-7" x="468.79" y="444.19" width="318.48" height="23.41" rx="5.88"/><path class="cls-8" d="M781.38,467.81H474.67a6.1,6.1,0,0,1-6.09-6.1V450.07a6.09,6.09,0,0,1,6.09-6.09H781.38a6.1,6.1,0,0,1,6.1,6.09v11.64A6.11,6.11,0,0,1,781.38,467.81ZM474.67,444.4a5.67,5.67,0,0,0-5.67,5.67v11.64a5.68,5.68,0,0,0,5.67,5.68H781.38a5.68,5.68,0,0,0,5.67-5.68V450.07a5.67,5.67,0,0,0-5.67-5.67Z"/><rect class="cls-9" x="355.63" y="474.55" width="178.58" height="436.32"/><path class="cls-9" d="M355.64,474.55V910.87H313.7a9.4,9.4,0,0,1-9.39-9.41V474.55Z"/><rect class="cls-8" x="355.42" y="474.55" width="0.42" height="436.32"/><path class="cls-10" d="M922.35,440.1a9.4,9.4,0,0,1,9.4,9.4v451c0,5.7-5.89,10.33-13.14,10.33H313.7a9.4,9.4,0,0,1-9.39-9.41v-452a9.39,9.39,0,0,1,9.39-9.4H922.35m0-4.25H313.7a13.66,13.66,0,0,0-13.64,13.65v452a13.67,13.67,0,0,0,13.64,13.66H918.61c9.59,0,17.39-6.54,17.39-14.58v-451a13.67,13.67,0,0,0-13.65-13.65Z"/><rect class="cls-8" x="304.3" y="474.33" width="627.45" height="0.42"/><rect class="cls-11" x="316.67" y="487.47" width="27.95" height="27.95" rx="5.24"/><path class="cls-12" d="M339.38,487.47a5.25,5.25,0,0,1,5.24,5.24v17.46a5.25,5.25,0,0,1-5.24,5.25H321.91a5.25,5.25,0,0,1-5.24-5.25V492.71a5.25,5.25,0,0,1,5.24-5.24h17.47m0-1.7H321.91a7,7,0,0,0-6.94,6.94v17.46a7,7,0,0,0,6.94,6.94h17.47a7,7,0,0,0,6.94-6.94V492.71a7,7,0,0,0-6.94-6.94Z"/><path class="cls-13" d="M338.57,555H322.72a4.76,4.76,0,0,1-4.76-4.76V534.38a4.76,4.76,0,0,1,4.76-4.75h15.85c2.63,0,4.76,2.13,4.76,6V549C343.33,552.87,341.2,555,338.57,555Z"/><rect class="cls-8" x="355.63" y="527.84" width="576.12" height="0.42"/><rect class="cls-8" x="355.63" y="680.56" width="178.58" height="0.42"/><rect class="cls-14" x="595.02" y="567.88" width="250.72" height="8.06"/><rect class="cls-14" x="595.02" y="581.88" width="167.3" height="8.06"/><rect class="cls-15" x="595.02" y="554.69" width="51.27" height="8.06"/><rect class="cls-14" x="595.02" y="636.18" width="250.72" height="8.06"/><rect class="cls-14" x="595.02" y="650.18" width="167.3" height="8.06"/><rect class="cls-15" x="595.02" y="622.99" width="51.27" height="8.06"/><rect class="cls-14" x="595.02" y="723.91" width="250.72" height="8.06"/><rect class="cls-14" x="595.02" y="737.91" width="167.3" height="8.06"/><rect class="cls-15" x="595.02" y="710.73" width="51.27" height="8.06"/><path class="cls-14" d="M862.28,829.69h-266a8.13,8.13,0,0,1-8.13-8.13v-38a8.14,8.14,0,0,1,8.13-8.13h266a8.14,8.14,0,0,1,8.13,8.13v38A8.13,8.13,0,0,1,862.28,829.69Zm-266-53.41a7.29,7.29,0,0,0-7.28,7.28v38a7.28,7.28,0,0,0,7.28,7.28h266a7.28,7.28,0,0,0,7.28-7.28v-38a7.29,7.29,0,0,0-7.28-7.28Z"/><polygon class="cls-16" points="622.43 815.2 604.43 815.2 604.43 790.55 617.01 790.55 622.43 797.21 622.43 815.2"/><path class="cls-15" d="M622.86,815.62H604v-25.5h13.2l5.65,6.93Zm-18-.84H622V797.36l-5.2-6.39H604.86Z"/><rect class="cls-15" x="608.13" y="802.14" width="10.11" height="0.85"/><rect class="cls-15" x="608.13" y="805.49" width="10.11" height="0.85"/><rect class="cls-15" x="608.13" y="808.83" width="6.53" height="0.85"/><rect class="cls-15" x="637.61" y="787.96" width="110.54" height="11.95"/><rect class="cls-14" x="637.61" y="805.91" width="98.67" height="9.29"/><rect class="cls-8" x="367.48" y="487.47" width="51.27" height="9.12"/><rect class="cls-15" x="569.38" y="490.05" width="51.27" height="9.12"/><rect class="cls-15" x="569.38" y="504.32" width="120.68" height="9.12"/><rect class="cls-8" x="385.68" y="506.3" width="59.25" height="9.12"/><rect class="cls-8" x="385.68" y="559.52" width="59.25" height="9.12"/><rect class="cls-8" x="385.68" y="586.91" width="65.72" height="9.12"/><rect class="cls-8" x="385.68" y="614.3" width="77.03" height="9.12"/><rect class="cls-8" x="385.68" y="641.69" width="59.25" height="9.12"/><rect class="cls-8" x="385.68" y="719.62" width="59.25" height="9.12"/><rect class="cls-8" x="385.68" y="747.01" width="65.72" height="9.12"/><rect class="cls-17" x="497.03" y="746.3" width="14.59" height="10.54" rx="5.27"/><rect class="cls-8" x="385.68" y="774.4" width="59.25" height="9.12"/><rect class="cls-8" x="385.68" y="801.79" width="59.25" height="9.12"/><rect class="cls-18" x="367.48" y="506.3" width="9.12" height="9.12" rx="4.56"/><rect class="cls-18" x="493.05" y="486.42" width="29.77" height="29.77" rx="14.88"/><path class="cls-19" d="M507.93,486.42a14.88,14.88,0,0,1,14.88,14.88h0a14.88,14.88,0,0,1-14.88,14.88h0a14.88,14.88,0,0,1-14.88-14.88h0a14.88,14.88,0,0,1,14.88-14.88h0m0-1.7a16.58,16.58,0,1,0,16.58,16.58,16.6,16.6,0,0,0-16.58-16.58Z"/><path class="cls-20" d="M911.93,870V893.5a5.3,5.3,0,0,1-5.3,5.3H556.18a5.31,5.31,0,0,1-5.3-5.3V870Z"/><path class="cls-14" d="M906.63,899.23H556.18a5.73,5.73,0,0,1-5.72-5.73V846.56a5.73,5.73,0,0,1,5.72-5.72H906.63a5.73,5.73,0,0,1,5.72,5.72V893.5A5.73,5.73,0,0,1,906.63,899.23ZM556.18,841.69a4.88,4.88,0,0,0-4.87,4.87V893.5a4.88,4.88,0,0,0,4.87,4.88H906.63a4.88,4.88,0,0,0,4.87-4.88V846.56a4.88,4.88,0,0,0-4.87-4.87Z"/><rect class="cls-14" x="563.69" y="849.59" width="41.27" height="11.45"/><rect class="cls-14" x="613.19" y="849.59" width="110.47" height="11.45"/><g class="cls-21"><rect class="cls-22" x="557.98" y="554.17" width="16.98" height="16.98" rx="5.97" transform="translate(1132.93 1125.33) rotate(180)"/><path class="cls-23" d="M562,582.38c3,0,6,.14,9,.25-.37-4.67-.66-9.34-1-14l-7,.07Q562.51,575.55,562,582.38Z"/><path class="cls-23" d="M572.49,573.21H571c-3.49,0-9.69-2.83-9.69-6.32v-3.28a6.32,6.32,0,0,1,6.32-6.32h1.55a6.32,6.32,0,0,1,6.32,6.32v3.28C575.45,570.38,576,573.21,572.49,573.21Z"/><rect class="cls-22" x="565.67" y="556.17" width="12.2" height="6.61" rx="3.31" transform="translate(994.28 1238.74) rotate(-166.26)"/><rect class="cls-22" x="559.17" y="556.42" width="8.32" height="6.61" rx="3.31" transform="translate(1265.92 929.85) rotate(162.96)"/><path class="cls-23" d="M563.36,565.94a2.72,2.72,0,0,1-3,2.83,3.31,3.31,0,0,1-3.1-3.25,2.73,2.73,0,0,1,3-2.83A3.29,3.29,0,0,1,563.36,565.94Z"/><path class="cls-24" d="M578.49,581v8.76h-26V581a2.92,2.92,0,0,1,2.39-2.87,3.05,3.05,0,0,1,.52-.05h20.17a3.39,3.39,0,0,1,.64.07A2.92,2.92,0,0,1,578.49,581Z"/><path class="cls-23" d="M546,589.74l.69-1.07a4.52,4.52,0,0,1,5.78-1.64,4.59,4.59,0,0,1,.88.55,4.51,4.51,0,0,1,1.47,2.16Z"/><path class="cls-24" d="M560.53,586.26l-2.33,3.48H546l-.1.15-.23-.15h0a1.12,1.12,0,0,1-.17-1.56l5.55-8.27a4.09,4.09,0,0,1,3.82-1.79,4.13,4.13,0,0,1,1.86.68l2.68,1.79A4.1,4.1,0,0,1,560.53,586.26Z"/><path class="cls-23" d="M584.41,589.74H575a4.55,4.55,0,0,1,3.48-3.64,4.28,4.28,0,0,1,1-.11,4.58,4.58,0,0,1,3.85,2.09Z"/><path class="cls-24" d="M584.77,589.74a.79.79,0,0,1-.19.17l0,0-.13-.2H572l-2.42-3.61a3.73,3.73,0,0,1,1-5.17l3.29-2.21a3.82,3.82,0,0,1,2.38-.62,3.73,3.73,0,0,1,2.79,1.64l5.76,8.58A1.18,1.18,0,0,1,584.77,589.74Z"/><polygon class="cls-23" points="545.69 589.74 546.02 589.74 545.92 589.89 545.69 589.74"/><path class="cls-23" d="M584.77,589.74a.79.79,0,0,1-.19.17l0,0-.13-.2Z"/></g><g class="cls-25"><rect class="cls-22" x="568.7" y="625.58" width="7.66" height="5.63" rx="2.82" transform="translate(-262.43 468.65) rotate(-36.83)"/><path class="cls-22" d="M563.92,625.4H567a8,8,0,0,1,8,8v13.82a.94.94,0,0,1-.94.94H556.9a.94.94,0,0,1-.94-.94V633.36a8,8,0,0,1,8-8Z"/><path class="cls-23" d="M570.07,653.07c-2.84,0-5.68.13-8.52.23.35-4.44.62-8.88,1-13.32l6.7.07C569.45,644.39,569.75,648.73,570.07,653.07Z"/><path class="cls-23" d="M560.07,644.34h1.48c3.32,0,9.21-2.69,9.21-6V635.2a6,6,0,0,0-6-6h-1.48a6,6,0,0,0-6,6v3.13C557.26,641.65,556.75,644.34,560.07,644.34Z"/><path class="cls-23" d="M568.76,637.42a2.6,2.6,0,0,0,2.89,2.69,3.14,3.14,0,0,0,3-3.09,2.6,2.6,0,0,0-2.88-2.69A3.14,3.14,0,0,0,568.76,637.42Z"/><rect class="cls-22" x="555.31" y="628.55" width="7.66" height="5.63" rx="2.82" transform="translate(-261.29 436.04) rotate(-35.08)"/><rect class="cls-22" x="561.62" y="628.55" width="7.66" height="5.63" rx="2.82" transform="translate(441.73 -207.11) rotate(33.45)"/><rect class="cls-22" x="566.23" y="631.91" width="6.81" height="3.49" rx="1.74" transform="translate(1218.8 81.75) rotate(91.58)"/><path class="cls-23" d="M585.82,660.14H575.28a4.33,4.33,0,0,1,.69-4.88,3.84,3.84,0,0,1,.46-.44,4.34,4.34,0,0,1,6.22.82l.4.58Z"/><path class="cls-23" d="M556.52,660.14H546.4l1.72-2.78.56-.9a4.4,4.4,0,0,1,6.38-.94l.16.14A4.37,4.37,0,0,1,556.52,660.14Z"/><polygon class="cls-26" points="576.22 647.9 576.21 648.01 575.97 655.26 575.8 660.14 555.47 660.14 555.22 655.66 554.79 647.9 576.22 647.9"/><path class="cls-26" d="M583.05,656.22a.68.68,0,0,1-.25.31l-5.37,3.61h-2.31l-4-4.39a3.64,3.64,0,0,1,.27-5.2l1.89-1.67a3.66,3.66,0,0,1,5.35.56l4.33,5.86A1,1,0,0,1,583.05,656.22Z"/><path class="cls-26" d="M560.59,652.64a4.81,4.81,0,0,1-1.14,3.12l-2.67,4.38h-4.7l-3.68-2.48a.89.89,0,0,1-.28-.3,1.2,1.2,0,0,1,.11-1.18l3.74-6.55a4.83,4.83,0,0,1,4.23-1.81,5.21,5.21,0,0,1,.55.08,5.11,5.11,0,0,1,.76.23,4.82,4.82,0,0,1,3.08,4.51Z"/></g><g class="cls-27"><rect class="cls-22" x="559.52" y="711.8" width="14.28" height="14.28" rx="1" transform="translate(1133.32 1437.89) rotate(180)"/><path class="cls-23" d="M563,735.54c2.51,0,5,.11,7.54.2-.31-3.92-.56-7.85-.86-11.77l-5.92,0Q563.48,729.78,563,735.54Z"/><rect class="cls-23" x="561.17" y="714.42" width="13.88" height="13.39" rx="2.8" transform="translate(1136.21 1442.24) rotate(180)"/><rect class="cls-22" x="560.62" y="713.48" width="4.52" height="10.49" rx="1" transform="translate(1125.76 1437.44) rotate(180)"/><path class="cls-23" d="M564.19,721.7a2.3,2.3,0,0,1-2.55,2.38,2.78,2.78,0,0,1-2.62-2.73,2.3,2.3,0,0,1,2.56-2.38A2.77,2.77,0,0,1,564.19,721.7Z"/><circle class="cls-22" cx="573.97" cy="715.04" r="3.92"/><circle class="cls-22" cx="568.77" cy="715.04" r="3.92"/><polygon class="cls-23" points="579.82 743.23 583.48 752.01 590.54 745.68 594.28 748.12 582.29 760.52 571.4 744.94 579.82 743.23"/><path class="cls-23" d="M594.75,741h0a2.36,2.36,0,0,1,1.31,3l-1.15,3.25a2.36,2.36,0,0,1-3.13,1.39l-.35-.15a2.35,2.35,0,0,1-1.21-3.2l1.5-3.1A2.36,2.36,0,0,1,594.75,741Z"/><path class="cls-28" d="M575.11,732.12l-6.48,2.45a2.2,2.2,0,0,0-1.25,2.9l5.25,12.67.73-.22,3.43-1,1.22-.35c1.23-.35,2.18-.64,3.07-.92l.78-.25L578,733.59A2.2,2.2,0,0,0,575.11,732.12Z"/><path class="cls-28" d="M554,731.68h24.45a0,0,0,0,1,0,0v27.14a2.74,2.74,0,0,1-2.74,2.74h-19a2.74,2.74,0,0,1-2.74-2.74V731.68A0,0,0,0,1,554,731.68Z" transform="translate(1132.44 1493.24) rotate(180)"/><polygon class="cls-23" points="550.6 741.02 557 746.48 553.63 750.83 564.99 764.07 563.48 765.71 561.97 767.36 544.87 751 550.6 741.02"/><path class="cls-23" d="M568.4,770.23h0a2.36,2.36,0,0,1-3.24.22l-2.66-2.18a2.36,2.36,0,0,1-.24-3.42l.26-.28a2.35,2.35,0,0,1,3.42-.05l2.41,2.46A2.38,2.38,0,0,1,568.4,770.23Z"/><path class="cls-28" d="M562.73,735.19,558,732.3a2.87,2.87,0,0,0-4,1l-6.47,11.32.63.44c1,.69,1.94,1.4,2.88,2.1l1,.75c1,.76,1.85,1.33,2.61,1.86l.68.46,8.14-10.91A2.87,2.87,0,0,0,562.73,735.19Z"/></g><path class="cls-29" d="M583.9,709.36V746H547.29V709.36H583.9m.85-.84H546.44v38.3h38.31v-38.3Z"/><path class="cls-29" d="M583.9,622.42V659H547.29V622.42H583.9m.85-.85H546.44v38.31h38.31V621.57Z"/><path class="cls-29" d="M583.9,552v36.61H547.29V552H583.9m.85-.85H546.44v38.31h38.31V551.17Z"/><circle class="cls-30" cx="533.34" cy="454.71" r="3.02"/><line class="cls-30" x1="538.73" y1="460.1" x2="535.48" y2="456.85"/><rect class="cls-14" x="549.07" y="452.27" width="168.76" height="7.83"/><path class="cls-31" d="M875.13,696.83c4.25-17,23.29-28.66,43.13-26.13,1.27.16,2.51.38,3.73.65,15.43,3.39,27.11,15.09,28.28,29.44l5.48,67.41c2.07,25.37-19.15,47.54-45.44,46.42q-1.9-.07-3.84-.33c-22.06-2.81-37.27-21.45-36.07-42.8l3.9-69.17A29.33,29.33,0,0,1,875.13,696.83Z"/><path class="cls-32" d="M882.68,697.8c4-15.95,20.9-27.14,39.31-26.45,15.43,3.39,27.11,15.09,28.28,29.44l5.48,67.41c2.07,25.37-19.15,47.54-45.44,46.42A40.59,40.59,0,0,1,878,772.45l3.89-69.17A30.07,30.07,0,0,1,882.68,697.8Z"/><rect class="cls-33" x="923.96" y="828.06" width="12.67" height="70.66"/><rect class="cls-34" x="933.36" y="828.06" width="3.27" height="70.66"/><rect class="cls-35" x="921.58" y="829.27" width="17.14" height="15.32"/><circle class="cls-34" cx="891.75" cy="910.25" r="7.76"/><circle class="cls-33" cx="892.18" cy="911.1" r="5.87"/><circle class="cls-34" cx="969.92" cy="910.25" r="7.76"/><circle class="cls-33" cx="970.31" cy="911.1" r="5.87"/><path class="cls-33" d="M892.2,897.06h77.26a8.22,8.22,0,0,1,8.22,8.22v0a0,0,0,0,1,0,0H884a0,0,0,0,1,0,0v0A8.22,8.22,0,0,1,892.2,897.06Z"/><path class="cls-31" d="M985,828.61c12-6.48,9-15.31,2.85-19.87s-48.34-8.49-61.24-7.61-58,1.11-47.18,22.25C887,838.17,973,835.09,985,828.61Z"/><path class="cls-36" d="M1050.56,841.57l16.83,19.62-8,7.88-16.36-17.87a1.44,1.44,0,0,1-.1-1.8l5.47-7.73A1.33,1.33,0,0,1,1050.56,841.57Z"/><path class="cls-37" d="M1057,866.42l7.09,7.62L1091.45,847c-6.25-6.72-26.37,11.46-26.37,11.46Z"/><path class="cls-38" d="M1064.3,844.53l-8.92,9-8.92,9L993.24,803l-95.88,5.35L900.83,774c.16-1.3.79-2.34,2.1-2.38l102.37,5.48Z"/><path class="cls-39" d="M1005.06,875.52l6.54.1a2,2,0,0,1,2,2.1l-.27,15.69-10.44,1.29-.31-16.64A2.53,2.53,0,0,1,1005.06,875.52Z"/><path class="cls-40" d="M1002.8,891.3l.26,9.77,35.74-4.44c-.12-8.59-25.37-6.64-25.37-6.64Z"/><path class="cls-41" d="M1021.46,879.79l-11.84.84-11.88.84-19.26-62.13-78.65-9.2c-.81-.11-2.53-1-2.47-1.78l3.72-35.53,101.48,19.5Z"/><path class="cls-42" d="M949.76,642.07l13,2.76A15.89,15.89,0,0,1,975,663.48l-2.62,13a15.48,15.48,0,0,1-18.43,12.13l-13-2.76a15.89,15.89,0,0,1-12.23-18.65l2.63-13a15.48,15.48,0,0,1,18.42-12.13"/><path class="cls-36" d="M930.83,714.23c7.71,1.48,15.38,3.15,23,4.82,1.12-12.26,2.42-24.51,3.56-36.77q-9.12-1.54-18.21-3.12-4,17.58-8.4,35.07"/><path class="cls-36" d="M961.84,695.86l-4-.85c-9-1.91-23.4-12.59-21.59-21.6L938,665A16.4,16.4,0,0,1,957.5,652.1l4,.85a16.84,16.84,0,0,1,13,19.76l-1.71,8.46c-1.81,9-1.92,16.59-10.88,14.69"/><path class="cls-42" d="M956.8,664.68l13.25,6.38A8.58,8.58,0,0,0,981.58,667a8.8,8.8,0,0,0-4.16-11.63L964.17,649A8.57,8.57,0,0,0,952.65,653a8.8,8.8,0,0,0,4.15,11.64"/><path class="cls-42" d="M943.92,664.93l4.45-.4a8.6,8.6,0,0,0,7.78-9.45,8.78,8.78,0,0,0-9.47-7.91l-4.45.4a8.61,8.61,0,0,0-7.78,9.45,8.77,8.77,0,0,0,9.47,7.91"/><path class="cls-36" d="M942.16,672.12a7.09,7.09,0,0,1-9.26,5.63,8.81,8.81,0,0,1-6.29-10.09,7.11,7.11,0,0,1,9.27-5.64,8.8,8.8,0,0,1,6.28,10.1"/><path class="cls-36" d="M1010,769.46l-.62,6-.17,1.65-17.09-.86-6.18-2-11.23-3.52-.12,0-3-1-.82-.25h0l-2.55-.81-.24-.07-3-.94-1.48-.47-1.53-4-1.1-2.87-5.91-15.35-.27-.76h0c-.12-.32-.22-.63-.33-.94h0c-1.38-4.09-2.26-7.77-1.47-10.91a9,9,0,0,1,3.54-5.09,12,12,0,0,1,2.89-1.58,11.68,11.68,0,0,1,4.73-.74,12,12,0,0,1,7,2.73l.23.2a12,12,0,0,1,2.47,2.95l2.41,11.72,2.7,13.09,30.67,13.5Z"/><path class="cls-36" d="M1027.29,777.53a4.17,4.17,0,0,1-.08.51l-21.87-1.11a7.37,7.37,0,0,1,0-1.41l.11-1a6.3,6.3,0,0,1,4.06-5.27,6.23,6.23,0,0,1,3.28-.31l9.18,1.57a6.47,6.47,0,0,1,5.33,7"/><path class="cls-43" d="M977.69,713l2.54,29.32-27.17,2.1a3,3,0,0,1-2.91-2.94l-1.33-25.92c.39-6.3,2.92-11.37,8.82-11.82l8.43-.65A10.87,10.87,0,0,1,977.69,713"/><path class="cls-43" d="M972.53,711.05l-.57,7.53-.63,8.38-1.16,15.36-1.68,22.24-.25,3.28L967.7,775l-65.27-3.32.88-46.86v0l.32-17.66h0l0-1.41c1.68-6,9.26-11.29,14.07-10.46l17.09,2.66,3.59.55,8.37,1.3,8.82,1.37,8.38,1.3h0l2.53.39a7.2,7.2,0,0,1,6,8.2"/><path class="cls-36" d="M974.2,773.27l-.75,3-.71,2.83-.6,2.43-17-3.27-38.06-15.86-8.54-22.18-.27-.76c-2.45-7-3.71-12.86,1.74-16.94a11.7,11.7,0,0,1,7.62-2.32,12,12,0,0,1,9.72,5.88l2.41,11.72L934,753.17l23,11.5h0l4.87,2.43,2.37,1.18,3.53,1.76,5.93,3Z"/><path class="cls-36" d="M990.2,783.67a4.61,4.61,0,0,1-.15.53,5,5,0,0,1-.32.75l-21.14-4.07a6.67,6.67,0,0,1,.15-2.26l.25-1a6.3,6.3,0,0,1,4.68-4.63,6.22,6.22,0,0,1,3.36.13l8.88,2.84a6.46,6.46,0,0,1,4.29,7.7"/><path class="cls-43" d="M931.36,708.2l2.54,29.32-27.17,2.09a3,3,0,0,1-2.91-2.94l-1.33-25.92c.39-6.3,2.92-11.37,8.82-11.82l8.43-.65a10.86,10.86,0,0,1,11.62,9.92"/><path class="cls-44" d="M1049.57,744.61l-10.39,43.11,0,.22-72.45-4.17a1.8,1.8,0,0,1,0-.22l10.37-43.11a4.27,4.27,0,0,1,.68-1.51,4.9,4.9,0,0,1,1.37-1.31,4.25,4.25,0,0,1,.6-.33,4.45,4.45,0,0,1,2-.39l64.79,3.73a3.17,3.17,0,0,1,3,4"/><path class="cls-45" d="M1050.85,744.69a4.21,4.21,0,0,0-4-5.32l-64.79-3.73a5.77,5.77,0,0,0-2.72.52,7,7,0,0,0-.82.45,6.33,6.33,0,0,0-1.83,1.74,5.63,5.63,0,0,0-.9,2l-10.37,43.11a1.5,1.5,0,0,0,0,.22l-14.22-.82a2.14,2.14,0,0,0-2.26,2l-.06,1a2.4,2.4,0,0,0,2.26,2.54l88.67,5.1.65-5.55h0l0-.21Zm-11.67,43,0,.22-72.45-4.17a1.8,1.8,0,0,1,0-.22l10.37-43.11a4.27,4.27,0,0,1,.68-1.51,4.9,4.9,0,0,1,1.37-1.31,4.25,4.25,0,0,1,.6-.33,4.45,4.45,0,0,1,2-.39l64.79,3.73a3.17,3.17,0,0,1,3,4Z"/><path class="cls-44" d="M1039,789.22l-.43,3-87.38-5a1.1,1.1,0,0,1-1-1.17l.06-1a.84.84,0,0,1,.89-.8Z"/><rect class="cls-45" x="957.86" y="783.85" width="1.29" height="4.64" transform="translate(118.65 1698) rotate(-86.71)"/><path class="cls-45" d="M962.73,787.06l-.22,0a.64.64,0,1,1,.07-1.28h.22a.65.65,0,1,1-.07,1.29"/><rect class="cls-45" x="1034.81" y="790.52" width="2.35" height="1.29" transform="translate(186.82 1780.17) rotate(-86.72)"/><rect class="cls-45" x="1032.04" y="790.36" width="2.35" height="1.29" transform="translate(184.1 1777.01) rotate(-86.7)"/><rect class="cls-45" x="1029.27" y="790.2" width="2.35" height="1.29" transform="translate(181.92 1774.33) rotate(-86.72)"/><path class="cls-46" d="M1003.55,761.83a5.45,5.45,0,0,0,5.16,6.88,8.12,8.12,0,0,0,8.1-6.11,5.45,5.45,0,0,0-5.16-6.88,8.11,8.11,0,0,0-8.1,6.11"/><path class="cls-47" d="M1008.57,769.34a6,6,0,0,1-5.67-7.54,8.93,8.93,0,0,1,8.89-6.71,6,6,0,0,1,5.67,7.54,8.93,8.93,0,0,1-8.89,6.71m2.93-13a7.34,7.34,0,0,0-7.31,5.52,4.93,4.93,0,0,0,4.67,6.21,7.34,7.34,0,0,0,7.31-5.52,4.92,4.92,0,0,0-4.67-6.21"/><path class="cls-48" d="M829.29,282l-32.37,4.56a2.71,2.71,0,0,0-2.32,3l4,32.29a2.6,2.6,0,0,0,3,2.26l32.37-4.56a2.72,2.72,0,0,0,2.32-3l-4-32.28A2.6,2.6,0,0,0,829.29,282Z"/><path class="cls-49" d="M830.34,345.34c-6.62,1-13.22,2.17-19.81,3.34-.45-10.43-1.07-20.85-1.54-31.27l15.61-2.05Q827.32,330.39,830.34,345.34Z"/><path class="cls-49" d="M799.24,293.26l21.8-3.07a7.28,7.28,0,0,1,8.29,6.33L831.85,317a7.61,7.61,0,0,1-6.49,8.41l-21.8,3.08a7.3,7.3,0,0,1-8.3-6.33l-2.51-20.48A7.61,7.61,0,0,1,799.24,293.26Z"/><path class="cls-48" d="M826.93,286.83l-6.63.94a2.71,2.71,0,0,0-2.32,3l2.74,22.3a2.6,2.6,0,0,0,3,2.27l6.63-.94a2.71,2.71,0,0,0,2.32-3l-2.74-22.31A2.61,2.61,0,0,0,826.93,286.83Z"/><path class="cls-49" d="M822.82,309.41a6,6,0,0,0,7.49,5.3,7.54,7.54,0,0,0,6-8.16,6,6,0,0,0-7.49-5.31A7.53,7.53,0,0,0,822.82,309.41Z"/><ellipse class="cls-48" cx="794.88" cy="295.53" rx="10.5" ry="10.31" transform="translate(22.21 645.03) rotate(-44.73)"/><ellipse class="cls-48" cx="808.58" cy="293.6" rx="10.5" ry="10.31" transform="translate(27.54 654.11) rotate(-44.73)"/><polygon class="cls-49" points="777.85 359.41 764.13 380.98 749.02 363.33 738.57 368.86 765.17 400.64 799.59 365.89 777.85 359.41"/><path class="cls-49" d="M739.09,350h0a6.26,6.26,0,0,0-4.19,7.5l2.23,8.81a6.2,6.2,0,0,0,7.9,4.4l1-.3a6.26,6.26,0,0,0,4-8.15l-3.18-8.52A6.22,6.22,0,0,0,739.09,350Z"/><path class="cls-50" d="M800.77,336.31h0c7.47,3.22,10.92,11.52,7.11,18.74L795.06,379.3l-23.6-9.4,9.84-24.82A14.5,14.5,0,0,1,800.77,336.31Z"/><path class="cls-48" d="M747,364.72l.6-.3a1,1,0,0,0,.45-1.34l-13.27-26.9a1.06,1.06,0,0,0-1.39-.55l-.6.3a1.06,1.06,0,0,0-.4,1.45l13.27,26.89A1,1,0,0,0,747,364.72Z"/><path class="cls-49" d="M741.55,354.6h0a2.91,2.91,0,0,0-2.33,3.25l.56,4.19a2.88,2.88,0,0,0,3.42,2.45l.46-.08a2.92,2.92,0,0,0,2.27-3.56l-1-4.11A2.88,2.88,0,0,0,741.55,354.6Z"/><path class="cls-50" d="M852.16,414.5l-61.48-.21-3-70a7.51,7.51,0,0,1,6.65-8.23l51.3-5.56a7.41,7.41,0,0,1,8.19,6.62Z"/><path class="cls-41" d="M836.63,450.25,795.17,452,790,408.23a1.36,1.36,0,0,1,1.37-1.35l61.34.33-.54,23.62C852.54,442.77,848.57,449.78,836.63,450.25Z"/><path class="cls-49" d="M731.58,526.63l-3.77,26.87,11.58,2.1,4.36-25.06a1.47,1.47,0,0,0-.93-1.62l-9.29-3.45A1.46,1.46,0,0,0,731.58,526.63Z"/><path class="cls-51" d="M740.06,551.88l-2,10.75-39.83-7.24c1.73-9.48,30-5.65,30-5.65Z"/><path class="cls-41" d="M723.06,540.49l10.28,1.37L746,545.94l22.74-90.45,54.33-16-24.46-30.79a3,3,0,0,0-3.6-1.36L735.84,438.9Z"/><path class="cls-49" d="M792.73,532.6,798.87,559l11.57-2.2-5-25a1.46,1.46,0,0,0-1.44-1.18l-9.91.12A1.47,1.47,0,0,0,792.73,532.6Z"/><path class="cls-51" d="M809.72,553.11l2,10.74L772,571.42c-1.8-9.47,26-16.07,26-16.07Z"/><path class="cls-52" d="M786.91,545.34,800,543l13.11-2.36-5.87-81.32,34.54-9.64c9.72-3.17,11-9.34,10.79-19.6l.56-22.91H822.46l-52.8,38Z"/><path class="cls-49" d="M784.1,408.6l2.95,5.14,2.94,5.14L842.64,395l9.94-25.63a11.54,11.54,0,0,0-8.74-14.84h0A11.65,11.65,0,0,0,830,364.88l-1.81,19.47Z"/><path class="cls-49" d="M771.88,422.37h0a6.25,6.25,0,0,0,8.17,2.54l8.06-4a6.19,6.19,0,0,0,2.55-8.64l-.5-.86a6.21,6.21,0,0,0-8.75-2.21l-7.57,4.87A6.21,6.21,0,0,0,771.88,422.37Z"/><path class="cls-50" d="M830.71,339.35l-4,28.61,26.31,3.8a2.88,2.88,0,0,0,3-2.66l3.75-26.88c.59-5.75-6.58-11-10.59-11.5l-5.71-.69C839.44,329.54,831.3,333.6,830.71,339.35Z"/><rect class="cls-53" x="241.08" y="821.12" width="7.92" height="89.6"/><rect class="cls-54" x="341.58" y="752.56" width="3.69" height="68.45"/><rect class="cls-54" x="276.81" y="752.56" width="3.69" height="68.45"/><rect class="cls-54" x="276.81" y="694.64" width="68.45" height="64.77"/><rect class="cls-55" x="285.67" y="821.12" width="5.83" height="89.6"/><rect class="cls-55" x="339.43" y="821.12" width="5.83" height="89.6"/><path class="cls-53" d="M241.08,815.29H345.27v19.58H241.08Z"/><rect class="cls-53" x="277.75" y="821.12" width="7.92" height="89.6"/><path class="cls-49" d="M232.74,745.9l-1.46,10.42,42.31-1.46,12.5-55H268.38l-6.26,42.93Z"/><path class="cls-49" d="M217.44,753.89a5.85,5.85,0,0,0,6.71,4.39l8.36-1.49a5.83,5.83,0,0,0,4.65-7.06l-.21-.91a5.83,5.83,0,0,0-7.32-4.24L221.48,747A5.86,5.86,0,0,0,217.44,753.89Z"/><path class="cls-56" d="M267.54,699l-4,29,22.72,1.46a2.19,2.19,0,0,0,2.13-2.25l1.87-28.34Z"/><path class="cls-48" d="M316.53,651.31l-3.83,3.36a7.08,7.08,0,1,1-9.38-10.62l3.83-3.36a7.1,7.1,0,0,1,10,.62A7,7,0,0,1,316.53,651.31Z"/><path class="cls-48" d="M315.64,698.56l-43.09.34a2.38,2.38,0,0,1-2.4-2.36l-.27-34.8a20,20,0,0,1,19.89-20.2l7.75-.06a20,20,0,0,1,20.2,19.89l.28,34.8A2.38,2.38,0,0,1,315.64,698.56Z"/><path class="cls-49" d="M308.73,710.09c-7.13.66-14.26,1.48-21.34,2.3,0-11.21-.21-22.4-.27-33.64,5.61-.36,11.23-.77,16.8-1.17C305.45,688.45,307,699.28,308.73,710.09Z"/><path class="cls-49" d="M281.89,690.21l3.7-.3c8.35-.67,22.59-8.62,21.93-16.93l-.63-7.85a15.12,15.12,0,0,0-16.29-13.87l-3.69.29A15.14,15.14,0,0,0,273,667.84l.63,7.85C274.29,684,273.54,690.88,281.89,690.21Z"/><path class="cls-49" d="M302.31,671.1a6.52,6.52,0,0,0,7.77,6.15,8,8,0,0,0,6.81-8.36,6.55,6.55,0,0,0-7.77-6.2A8,8,0,0,0,302.31,671.1Z"/><path class="cls-48" d="M283.41,661.66l-3.92,3.24a7.09,7.09,0,0,1-9.07-10.9l3.92-3.24a7.11,7.11,0,0,1,10,.92A7,7,0,0,1,283.41,661.66Z"/><path class="cls-48" d="M291.58,664l-4.46-2.44A7.1,7.1,0,1,1,294,649.15l4.46,2.44A7.1,7.1,0,1,1,291.58,664Z"/><path class="cls-48" d="M299.59,665.88l-.42-8.37a4.38,4.38,0,1,1,8.75-.45l.42,8.37a4.38,4.38,0,0,1-8.75.45Z"/><path class="cls-56" d="M337.56,775.07H275.25l5.21-17.92-2-58.34h46.59l7.34,52.72Z"/><path class="cls-57" d="M216.91,905.31h-9.38L204.4,790.08,276.81,781l7.61,34.08-64.18-5Z"/><path class="cls-52" d="M205.61,876.76h18s3.34-55.52.42-61.26h61.68s-.36-16.56-10.21-40.43l-75.09,12.86Z"/><rect class="cls-52" x="275.25" y="775.07" width="62.1" height="27.51"/><path class="cls-57" d="M261.71,903.43h-9.59L249,790.08,321.4,781,329,815.08l-64.18-5Z"/><path class="cls-57" d="M226.08,912.06l37.35-.47-.12-6.68-11,.12S226,907.63,226.08,912.06Z"/><path class="cls-58" d="M263.29,901.37l.14,10.22-37.88.44c-.12-9,26.55-10.56,26.55-10.56Z"/><path class="cls-59" d="M247.28,877h18S270.46,824,268,815.71c4.17,0,67.3-.63,67.3-.63s11.94-16.35,2.09-40.21L245,787.93Z"/><path class="cls-49" d="M282.62,747.26v10.21l56-1.66-6.46-56.51h-9l-12.05.33,7,45.55Z"/><path class="cls-49" d="M266,751.31a5.83,5.83,0,0,0,5.34,6l8.46.73a5.84,5.84,0,0,0,6.32-5.62l0-.92a5.83,5.83,0,0,0-6-6l-8.49.2A5.85,5.85,0,0,0,266,751.31Z"/><path class="cls-56" d="M310.44,699.08l3.78,29.22,20.6,1.27a2.19,2.19,0,0,0,2.13-2.25l-3.35-28.24Z"/><rect class="cls-32" x="108.55" y="759.66" width="272.56" height="15.84"/><rect class="cls-32" x="108.55" y="772.16" width="75.43" height="138.36"/><path class="cls-31" d="M312.28,909.69l2.15-134.2h-5l1.42,134.2Z"/><path class="cls-31" d="M379,909.69l2.15-134.2h-5l1.42,134.2Z"/><path class="cls-31" d="M377.36,858l-63.77-27.92V833l63.77,28.76Z"/><path class="cls-31" d="M312.76,858l64.6-27.92V833l-64.6,28.76Z"/><rect class="cls-44" x="214.61" y="751.16" width="91.27" height="7.5"/><path class="cls-45" d="M304.84,752.2v5.42H215.66V752.2h89.18m2.09-2.09H213.57v9.59h93.36v-9.59Z"/><path class="cls-44" d="M322.55,758.66v-1a6.05,6.05,0,0,1,6.05-6h5.83a6,6,0,0,1,6,6v1Z"/><path class="cls-45" d="M334.43,752.62a5,5,0,0,1,5,5H323.6a5,5,0,0,1,5-5h5.83m0-2.09H328.6a7.1,7.1,0,0,0-7.09,7.09v2.08h20v-2.08a7.1,7.1,0,0,0-7.09-7.09Z"/><rect class="cls-31" x="155.64" y="773.41" width="40.84" height="136.28"/><path class="cls-57" d="M181.42,911.56l37.35.44,0-6.68-11-.15S181.45,907.13,181.42,911.56Z"/><path class="cls-58" d="M218.88,901.78,218.77,912l-37.88-.48c.1-9,26.8-9.91,26.8-9.91Z"/><rect class="cls-44" x="162.52" y="714.07" width="14.59" height="40.01"/><path class="cls-45" d="M176.07,715.11V753H163.56V715.11h12.51m2.08-2.09H161.48v42.1h16.67V713Z"/><rect class="cls-44" x="141.68" y="751.16" width="55.85" height="7.5"/><path class="cls-45" d="M196.49,752.2v5.42H142.73V752.2h53.76m2.08-2.09H140.64v9.59h57.93v-9.59Z"/><polygon class="cls-44" points="108.77 731.15 107.92 651.14 227.52 651.14 228.38 731.15 108.77 731.15"/><path class="cls-45" d="M226.49,652.18l.84,77.93H109.8L109,652.18H226.49m2.06-2.09H106.86l0,2.11.84,77.93,0,2.06H229.43l0-2.1-.83-77.93,0-2.07Z"/><path class="cls-60" d="M158.4,689.73a9.3,9.3,0,0,0,8.83,9.5,8.85,8.85,0,0,0,9.49-8.44,9.3,9.3,0,0,0-8.83-9.49,8.84,8.84,0,0,0-9.49,8.43"/><path class="cls-61" d="M1091.45,847c-6.25-6.72-26.37,11.46-26.37,11.46l0,0-6.74-7.87,6-6.05-45.67-52.17,21.17,1.21.65-5.55h0l0-.21,10.38-43.11a4.21,4.21,0,0,0-4-5.32l-64.79-3.73a5.83,5.83,0,0,0-2.39.39l-2-23a10.89,10.89,0,0,0-10.15-9.92,6.88,6.88,0,0,0-1-.24l-2.53-.39h0l-8.38-1.3c.22-2.19.43-4.38.65-6.57.55.17,1.09.31,1.61.42l4,.85c9,1.9,9.07-5.69,10.88-14.69l1.71-8.46c.05-.28.08-.55.12-.82a8.56,8.56,0,0,0,7-4.9,8.8,8.8,0,0,0-4.16-11.63l-3.71-1.79a15.79,15.79,0,0,0-11-8.74l-13-2.76A15.45,15.45,0,0,0,936,645.88V449.5a13.67,13.67,0,0,0-13.65-13.65H852.44c.14-1.77.17-3.69.14-5.79l.56-22.91h-.82l.76-35.39A2.88,2.88,0,0,0,856,369.1l3.75-26.88c.59-5.75-6.58-11-10.59-11.5l-5.71-.69a11.61,11.61,0,0,0-6,1.38l-9.68,1c-.47-2.43-.92-4.86-1.38-7.29a7.65,7.65,0,0,0,5.2-5.28l2.26-.32a2.72,2.72,0,0,0,2.32-3l-.71-5.75a7.2,7.2,0,0,0,.81-4.26,6.17,6.17,0,0,0-1.8-3.82l-2.26-18.45a2.6,2.6,0,0,0-3-2.26l-15.94,2.24a10.32,10.32,0,0,0-6-1,10.64,10.64,0,0,0-5.6,2.61l-2.07.29a10.27,10.27,0,0,0-6-1A10.62,10.62,0,0,0,784.55,297a10.16,10.16,0,0,0,8.71,8.85l2,16.32a7.3,7.3,0,0,0,8.3,6.33l5.93-.84c.11,2.26.23,4.51.35,6.77l-11.15,1.21a14.49,14.49,0,0,0-17.39,9.46l-9.38,23.65L764.13,381l-13.78-16.1a6.25,6.25,0,0,0-.37-2.62l-3.18-8.52a6.21,6.21,0,0,0-5.37-4l-6.68-13.54a1.06,1.06,0,0,0-1.39-.55l-.6.3a1.06,1.06,0,0,0-.4,1.45l6.3,12.78a6.27,6.27,0,0,0-3.76,7.34l2.23,8.81a6.13,6.13,0,0,0,2,3.18l26.08,31.15,23.61-23.84.3.12,1.21,28.28-5.5,3a6.06,6.06,0,0,0-3.38,1l-7.57,4.87a6.16,6.16,0,0,0-2.74,6l-29.53,15.76H313.7a13.66,13.66,0,0,0-13.64,13.65V641.64a21.25,21.25,0,0,0-2.54-.16l-7.75.06A20,20,0,0,0,272,652.73L270.42,654a7.11,7.11,0,0,0-.91,10c.12.15.26.29.39.43l.25,32.13a2.38,2.38,0,0,0,2.4,2.36l4.26,0V699l-9.27.07-4,29,.69,0-2.15,14.75L235,745.67a5.74,5.74,0,0,0-5.33-1.09L221.48,747a5.86,5.86,0,0,0-3.64,3.14h-4.27v9.55h-15v-9.55H178.15V732.19h51.28l0-2.1-.83-77.93,0-2.07H106.86l0,2.11.84,77.93,0,2.06h53.74v17.92H140.64v9.55H108.55V910.52H181a4.64,4.64,0,0,0-.14,1h.54v0l37.35.44.11-10.22-1.85,0,.88-25h5.66s3.34-55.52.42-61.26h17.09v87.39c-7.33,1.41-15.59,4.11-15.53,9.14h.54s0,0,0,0l37.35-.47h0l-.14-10.22h-1.51l.81-24.41h2.66s2.35-23.89,3.14-42.1h9.36v75.85h13.76V834.87h8.55v66.59a13.67,13.67,0,0,0,13.64,13.66h572a7.76,7.76,0,0,0,12.08,0h20.82c7.61,0,14.07-4.13,16.43-9.84H964a7.77,7.77,0,1,0,11.93,0h1.8a8.22,8.22,0,0,0-8.22-8.22H936.63V844.59h2.09V834c18-.24,35.1-1.88,43-4.14l16,51.65,4.89-.35.19,10.18h0l.07,2.54v.86h0l.17,6.37,35.74-4.44c-.12-8.59-25.37-6.64-25.37-6.64h0l.17-9.65,7.91-.56-12.89-59.63,37.89,42.37,3.63-3.67,6.91,7.55h0l1.84,2,.61.68h0l4.63,5ZM142.73,757.62h0Zm827.4,11.73-.4,1.69h0l.4-1.69Zm-1.57,1.1-.5-.25.11-1.47h0l.75.24Zm12-33.43a4.63,4.63,0,0,1,.9-.12A4.63,4.63,0,0,0,980.54,737ZM931.42,474.76h.33v.55C931.65,475.12,931.53,474.94,931.42,474.76ZM276.81,745.55l-1.11,0,1.11-4.92Zm-1.55,12.07Zm774.31-13-10.39,43.11,0,.22h0l0-.22,10.39-43.11a5.07,5.07,0,0,0,.09-.76A5.07,5.07,0,0,1,1049.57,744.61Zm-.08-1.8a3.28,3.28,0,0,0-.25-.58A3.28,3.28,0,0,1,1049.49,742.81ZM922.35,440.1a9.4,9.4,0,0,1,9.4,9.4v24.83h0V449.5a9.4,9.4,0,0,0-9.4-9.4ZM215.66,757.62h0Zm-8.23,144a96.28,96.28,0,0,0-10.94,1.17V775.49H273l-72.66,12.44,5.24,88.83h1.15Zm44.64-.14c-.13,0-1.29.08-3.07.26V877h2.39Zm103.57,9.38H534.21v-.68a9.78,9.78,0,0,0,1.07.69H355.64Z"/><rect class="cls-1" width="1200" height="1200"/></g></g></svg>