<svg xmlns="http://www.w3.org/2000/svg" width="900" height="750" id="support"><linearGradient id="a" x1="554.032" x2="554.032" y1="699.677" y2="409.983" gradientUnits="userSpaceOnUse"><stop offset="0" stop-color="#042637"></stop><stop offset=".282" stop-color="#0c5357"></stop><stop offset=".604" stop-color="#157f78"></stop><stop offset=".855" stop-color="#1a9b8c"></stop><stop offset="1" stop-color="#1ca593"></stop></linearGradient><path fill="url(#a)" d="M484.5 421.5c47.858 17.44 116.313 51.85 148.032 60.031C679.699 493.697 784.667 487 791 534c3.563 26.444-15.75 41.75-53 51.5-30.333 7.939-64.226 8.803-72 25-9 18.75 22 30.5 17 54.5-5.408 25.961-65.465 39.676-129 33-69-7.25-126.294-26.617-129.419-63.752C422.75 612.5 450.484 577.119 403.25 572c-26.115-2.83-55.25-8-76.573-39.738-15.643-23.283-12.486-60.865 5.958-84.392C363.5 408.5 425.5 400 484.5 421.5z"></path><linearGradient id="b" x1="674.068" x2="803.193" y1="459.435" y2="588.56" gradientUnits="userSpaceOnUse"><stop offset="0" stop-color="#00a39f"></stop><stop offset=".198" stop-color="#00a8a5"></stop><stop offset=".473" stop-color="#00b7b7"></stop><stop offset=".792" stop-color="#00cfd5"></stop><stop offset="1" stop-color="#00e2ec"></stop></linearGradient><path fill="url(#b)" d="M791 534c-5.403-40.1-82.6-41.113-134.445-48.102l89.981 97.161C778.165 573.239 794.28 558.34 791 534z"></path><path fill="#3369FF" d="m761.869 577.337-98.912-90.617c-9.729-1.191-18.753-2.521-26.5-4.251h-.002l90.949 105.528A245.19 245.19 0 0 0 738 585.5c9.04-2.366 17.013-5.062 23.869-8.163z"></path><linearGradient id="c" x1="687.611" x2="746.569" y1="547.918" y2="547.918" gradientUnits="userSpaceOnUse"><stop offset="0" stop-color="#3a64d3"></stop><stop offset="1" stop-color="#043753"></stop></linearGradient><path fill="url(#c)" d="M717.169 534.501h-29.558l24.307 26.833h34.651z"></path><linearGradient id="d" x1="665.338" x2="714.977" y1="521.207" y2="521.207" gradientUnits="userSpaceOnUse"><stop offset="0" stop-color="#3a64d3"></stop><stop offset="1" stop-color="#043753"></stop></linearGradient><path fill="url(#d)" d="M685.8 532.501h29.178l-24.751-22.589h-24.889z"></path><linearGradient id="e" x1="714.636" x2="772.5" y1="575.346" y2="575.346" gradientUnits="userSpaceOnUse"><stop offset="0" stop-color="#3a64d3"></stop><stop offset="1" stop-color="#043753"></stop></linearGradient><path fill="url(#e)" d="m714.636 564.334 19.95 22.024A210.2 210.2 0 0 0 738 585.5c9.7-2.539 18.171-5.459 25.352-8.85l-13.495-12.316h-35.221z"></path><linearGradient id="f" x1="639" x2="688.035" y1="495.701" y2="495.701" gradientUnits="userSpaceOnUse"><stop offset="0" stop-color="#3a64d3"></stop><stop offset="1" stop-color="#043753"></stop></linearGradient><path fill="url(#f)" d="M663.526 507.912h24.509l-22.937-20.934c-8.521-1.017-16.542-2.122-23.694-3.488l22.122 24.422z"></path><radialGradient id="g" cx="581.409" cy="620.428" r="104.937" gradientTransform="matrix(1 0 0 .4134 0 363.943)" gradientUnits="userSpaceOnUse"><stop offset="0" stop-color="#231f20"></stop><stop offset=".122" stop-color="#242228"></stop><stop offset=".317" stop-color="#25293f"></stop><stop offset=".56" stop-color="#283665"></stop><stop offset=".838" stop-color="#2c4799"></stop><stop offset="1" stop-color="#2e52ba"></stop></radialGradient><path fill="url(#g)" d="M645.5 605.5c-31.814 6.935-76.453 4.214-92.5 3s-68.75-7.25-72.5 13.5c-2.939 16.267 20 30.75 57 31.5 44.146.895 99.383-17.914 139.736-11.667C670.18 631.028 660.43 622.104 666 610.5c1.664-3.467 4.532-6.228 8.299-8.51-7.891.001-17.376 1.02-28.799 3.51z" opacity=".4"></path><radialGradient id="h" cx="417.715" cy="567.775" r="60.326" gradientUnits="userSpaceOnUse"><stop offset="0" stop-color="#231f20"></stop><stop offset=".122" stop-color="#242228"></stop><stop offset=".317" stop-color="#25293f"></stop><stop offset=".56" stop-color="#283665"></stop><stop offset=".838" stop-color="#2c4799"></stop><stop offset="1" stop-color="#2e52ba"></stop></radialGradient><path fill="url(#h)" d="M435.475 587.517c1.605.375 2.935 1.2 3.746 2.322.811 1.121 1.005 2.407.547 3.619l-1.604 4.245 5.767 1.349 1.605-4.245c.834-2.205.551-4.531-.763-6.614.21-.17.425-.339.633-.511a67.422 67.422 0 0 0 2.771-2.439 60.146 60.146 0 0 0 5.07-5.324c3.138-3.766 5.878-8.007 7.438-12.961.763-2.443 1.271-5.279.905-8.319-.343-3.033-1.731-6.342-4.186-8.99a19.197 19.197 0 0 0-3.04-2.682c6.014-8.491 10.438-14.865 10.969-15.966 2.167-4.499-3.333-6-3.333-6h-29.667l-61.242 40.904c10.74 3.446 21.691 4.961 32.159 6.096 14.048 1.522 21.464 5.723 24.999 11.443a7668.722 7668.722 0 0 0 19.204-26.761c.048.039.105.073.152.112.86.732 1.479 1.671 1.814 2.97.327 1.308.315 2.862-.03 4.627-.67 3.493-2.387 7.075-4.67 10.448a49.41 49.41 0 0 1-3.825 4.926 55.243 55.243 0 0 1-2.168 2.328l-1.135 1.115-.067.063c-.135-.035-.266-.078-.403-.11-3.039-.71-6.132-.473-8.763.471a17.48 17.48 0 0 1 1.877 4.446c1.482-.744 3.386-.995 5.24-.562z" opacity=".4"></path><linearGradient id="i" x1="220.568" x2="633.33" y1="-1.033" y2="411.728" gradientUnits="userSpaceOnUse"><stop offset="0" stop-color="#042637"></stop><stop offset="1" stop-color="#1ca593"></stop></linearGradient><path fill="url(#i)" d="M164.667 60.667C195.471 39.806 260.063 27.316 310.5 38.5c57.5 12.75 86.25 41.75 145 37.5 49.078-3.55 141.5-2 176 2.5S733.334 89 733.5 147c.115 40.333-35.815 47.484-53.5 56.5-20.414 10.407-44.334 16.75-44.334 41 0 19.5 21.462 28.035 34.334 38 15.5 12 35.744 28.162 26.999 57-6.502 21.441-28.819 38.683-52.013 40.344-9.798.702-44.635 5.587-84.556-11.367-23.098-9.81-43.098-30.81-50.181-49.977-14.063-38.055-15.691-32.125-35.25-29-48.389 7.731-76 30.25-103 63.5-27.024 33.279-59.826 63.72-101.5 62.5-51.25-1.5-49.432-48.286-71.5-75-28.5-34.5-91.791-63.918-100.333-148.833C93 135.333 112 96.333 164.667 60.667z"></path><radialGradient id="j" cx="404.527" cy="73.666" r="34.362" gradientUnits="userSpaceOnUse"><stop offset="0" stop-color="#fff" stop-opacity=".25"></stop><stop offset=".287" stop-color="#fdfdfd" stop-opacity=".178"></stop><stop offset=".426" stop-color="#f5f8f8" stop-opacity=".143"></stop><stop offset=".534" stop-color="#e8efef" stop-opacity=".117"></stop><stop offset=".626" stop-color="#d6e2e3" stop-opacity=".094"></stop><stop offset=".707" stop-color="#bdd1d2" stop-opacity=".073"></stop><stop offset=".781" stop-color="#a0bcbe" stop-opacity=".055"></stop><stop offset=".849" stop-color="#7ca4a6" stop-opacity=".038"></stop><stop offset=".913" stop-color="#53878a" stop-opacity=".022"></stop><stop offset=".971" stop-color="#26676b" stop-opacity=".007"></stop><stop offset="1" stop-color="#0d565a" stop-opacity="0"></stop></radialGradient><path fill="url(#j)" d="M404.584 108c18.068 0 32.866-13.961 34.221-31.683-25.217-.887-45.052-8.09-65.681-16.404a34.203 34.203 0 0 0-2.874 13.753c0 18.962 15.371 34.334 34.334 34.334z"></path><linearGradient id="k" x1="386.029" x2="417.613" y1="60.638" y2="92.222" gradientUnits="userSpaceOnUse"><stop offset="0" stop-color="#3ec6a8"></stop><stop offset="1" stop-color="#ffe2a8"></stop></linearGradient><path fill="url(#k)" d="M404.584 96c11.752 0 21.377-9.08 22.26-20.606-15.472-1.845-29.076-6.028-42.532-11.1a22.245 22.245 0 0 0-2.062 9.372c0 12.335 9.999 22.334 22.334 22.334z"></path><path fill="#CFDBA8" d="M397.084 75.5a5.672 5.672 0 0 0 5.627-5.027c-.334-.095-.664-.198-.996-.295-.18 2.41-2.177 4.322-4.631 4.322a4.672 4.672 0 0 1-4.667-4.667c0-.875.257-1.684.677-2.385l-.98-.334a5.628 5.628 0 0 0-.697 2.719 5.673 5.673 0 0 0 5.667 5.667z"></path><path fill="#FDE1A7" d="M413.451 88.891c-2.127 0-3.935-.912-4.96-2.502-1.804-2.8-.553-6.829 2.787-8.982 1.351-.87 2.862-1.33 4.371-1.33 2.128 0 3.936.912 4.96 2.503 1.804 2.8.554 6.829-2.787 8.981-1.351.871-2.863 1.33-4.371 1.33zm2.197-11.814c-1.316 0-2.64.405-3.829 1.17-2.877 1.854-3.994 5.263-2.488 7.599.837 1.299 2.338 2.044 4.119 2.044 1.316 0 2.641-.405 3.829-1.17 2.877-1.854 3.994-5.263 2.488-7.599-.836-1.299-2.337-2.044-4.119-2.044z"></path><path fill="#D5DCA8" d="m389.837 90.579-.59-.808c1.225-.895 1.928-2.265 1.928-3.761a4.673 4.673 0 0 0-4.667-4.667c-.881 0-1.748.257-2.507.743l-.539-.842a5.646 5.646 0 0 1 3.046-.901 5.673 5.673 0 0 1 5.667 5.667c0 1.819-.852 3.484-2.338 4.569z"></path><linearGradient id="l" x1="142.504" x2="142.504" y1="150.5" y2="57" gradientUnits="userSpaceOnUse"><stop offset="0" stop-color="#043753"></stop><stop offset="1" stop-color="#3a64d3"></stop></linearGradient><path fill="url(#l)" d="M185.5 57h-14.915a90.977 90.977 0 0 0-5.919 3.667c-38.789 26.269-59.297 54.355-65.157 89.833H185.5V57z"></path><linearGradient id="m" x1="696.999" x2="760" y1="326.553" y2="326.553" gradientUnits="userSpaceOnUse"><stop offset="0" stop-color="#043753"></stop><stop offset="1" stop-color="#3a64d3"></stop></linearGradient><path fill="url(#m)" d="M696.999 313.606V339.5c3.049-10.053 2.567-18.561 0-25.894z"></path><linearGradient id="n" x1="60.5" x2="201.5" y1="71.042" y2="71.042" gradientUnits="userSpaceOnUse"><stop offset="0" stop-color="#e868ef"></stop><stop offset="1" stop-color="#7558ce"></stop></linearGradient><path fill="url(#n)" d="M201.5 83.5V44.179c-14.56 4.396-27.313 10.041-36.833 16.488-17.527 11.87-31.306 24.114-41.707 37.238L190.5 94.5c6.075 0 11-4.925 11-11z"></path><path fill="#052D3C" d="M192.333 78.333v-31.13c-10.747 3.854-20.205 8.41-27.667 13.463-11.523 7.804-21.434 15.767-29.828 24.036l52.495-1.37c2.762.001 5-2.237 5-4.999z"></path><linearGradient id="o" x1="635.666" x2="696.999" y1="312.549" y2="312.549" gradientUnits="userSpaceOnUse"><stop offset="0" stop-color="#005da5"></stop><stop offset="1" stop-color="#0a444d"></stop></linearGradient><path fill="url(#o)" d="M670 282.5c-12.872-9.965-34.334-18.5-34.334-38v136.099c4.085-.275 7.262-.607 9.32-.755 23.193-1.661 45.511-18.902 52.013-40.344v-25.894C692.2 299.904 680.097 290.317 670 282.5z"></path><linearGradient id="p" x1="652.25" x2="699.112" y1="332.845" y2="332.845" gradientUnits="userSpaceOnUse"><stop offset="0" stop-color="#00a39f"></stop><stop offset="1" stop-color="#00e2ec"></stop></linearGradient><path fill="url(#p)" d="M652.25 297.72v81.087c20.443-4.305 38.931-20.119 44.749-39.308 7.726-25.477-7.173-41.057-21.438-52.618l-16.311 3.838a7.001 7.001 0 0 0-7 7.001z"></path><path fill="#3369FF" d="M655.25 297.72c0-2.206 1.794-4 4-4h.349l18.854-4.437a185.918 185.918 0 0 0-5.88-4.78l-13.701 3.224c-5.34.2-9.622 4.605-9.622 9.993v81.642c2.018-.31 4.02-.739 6-1.27V297.72z"></path><path fill="#003451" d="M701.166 95.468V160h30.929c.911-3.91 1.419-8.214 1.405-13-.075-26.3-13.961-41.907-32.334-51.532z"></path><linearGradient id="q" x1="657.666" x2="704" y1="121.087" y2="121.087" gradientUnits="userSpaceOnUse"><stop offset="0" stop-color="#45959f"></stop><stop offset="1" stop-color="#0e4a5f"></stop></linearGradient><path fill="url(#q)" d="M704 160V97.03c-13.9-7.979-30.803-12.196-46.334-14.856V160H704z"></path><path fill="#003451" d="M647.166 133.167h3v23h-3zM679.5 116.5h3v23h-3zM696.999 196.021c17.277-7.709 36.586-19.436 36.501-49.021-.021-7.646-1.221-14.381-3.349-20.335h-33.152v69.356z"></path><linearGradient id="r" x1="635.666" x2="696.999" y1="185.582" y2="185.582" gradientUnits="userSpaceOnUse"><stop offset="0" stop-color="#005da5"></stop><stop offset="1" stop-color="#0a444d"></stop></linearGradient><path fill="url(#r)" d="M635.666 157.665V244.5c0-24.25 23.92-30.593 44.334-41 4.712-2.402 10.723-4.678 16.999-7.479v-69.357l-61.333 31.001z"></path><linearGradient id="s" x1="635.666" x2="696.999" y1="145.582" y2="145.582" gradientUnits="userSpaceOnUse"><stop offset="0" stop-color="#00a39f"></stop><stop offset=".208" stop-color="#00a7a4"></stop><stop offset=".453" stop-color="#00b3b2"></stop><stop offset=".716" stop-color="#00c6ca"></stop><stop offset=".992" stop-color="#00e1eb"></stop><stop offset="1" stop-color="#00e2ec"></stop></linearGradient><path fill="url(#s)" d="m635.666 164.5 61.333-31v-6.835l-61.333 31z"></path><linearGradient id="t" x1="636.75" x2="690.25" y1="118.786" y2="118.786" gradientUnits="userSpaceOnUse"><stop offset="0" stop-color="#00afaf"></stop><stop offset="1" stop-color="#00e2ec"></stop></linearGradient><path fill="url(#t)" d="M636.75 137.625c0 1.104.125 3.875 2 3.125l49.5-24c1.458-.583 2-2.021 2-3.125V98.75c0-1.104-.917-2.333-2-2l-49.5 24c-1.438.813-2 2.396-2 3.5v13.375z"></path><linearGradient id="u" x1="634.75" x2="692.25" y1="118.786" y2="118.786" gradientUnits="userSpaceOnUse"><stop offset="0" stop-color="#7182e2"></stop><stop offset="1" stop-color="#e868ef"></stop></linearGradient><path fill="url(#u)" d="M638.164 142.877c-.001 0-.001 0 0 0-1.027 0-3.414-.512-3.414-5.252V124.25c0-1.631.79-3.983 3.016-5.241l.112-.059 49.638-24.066.146-.045c.311-.096.631-.144.951-.144 2.176 0 3.638 2.097 3.638 4.056v14.875c0 1.68-.836 3.973-3.184 4.952l-49.573 24.03a3.608 3.608 0 0 1-1.33.269zm1.526-20.36c-.688.418-.94 1.26-.94 1.733v13.375c0 .362.017.653.041.882l48.716-23.614c.723-.289.743-1.169.743-1.268V98.973l-48.56 23.544z"></path><linearGradient id="v" x1="696.999" x2="732.094" y1="130.082" y2="130.082" gradientUnits="userSpaceOnUse"><stop offset="0" stop-color="#00a39f"></stop><stop offset=".235" stop-color="#019e9a"></stop><stop offset=".512" stop-color="#05908d"></stop><stop offset=".81" stop-color="#0b7877"></stop><stop offset="1" stop-color="#106565"></stop></linearGradient><path fill="url(#v)" d="M696.999 126.665v6.835h35.095a54.487 54.487 0 0 0-1.942-6.835h-33.153z"></path><linearGradient id="w" x1="669" x2="688" y1="183.004" y2="183.004" gradientUnits="userSpaceOnUse"><stop offset="0" stop-color="#3ec6a8"></stop><stop offset="1" stop-color="#ffe2a8"></stop></linearGradient><path fill="url(#w)" d="m686 157.25-15 7a2 2 0 0 0-2 2v42.508c3.676-1.707 7.393-3.419 11-5.258 2.379-1.212 5.094-2.393 8-3.624V159.25a2 2 0 0 0-2-2z"></path><linearGradient id="x" x1="678.5" x2="678.5" y1="189.533" y2="179.319" gradientUnits="userSpaceOnUse"><stop offset="0" stop-color="#7558ce"></stop><stop offset="1" stop-color="#e868ef"></stop></linearGradient><path fill="url(#x)" d="m688 179.319-19 7.015v3.199l19-7.016z"></path><linearGradient id="y" x1="678.5" x2="678.5" y1="209.923" y2="154.75" gradientUnits="userSpaceOnUse"><stop offset="0" stop-color="#7558ce"></stop><stop offset="1" stop-color="#e868ef"></stop></linearGradient><path fill="url(#y)" d="M686 154.75h-.555l-15.103 7.048a4.507 4.507 0 0 0-3.843 4.452v43.673c1.655-.776 3.327-1.548 5-2.327V166.75l14-6.508v40.704c1.596-.693 3.273-1.398 5-2.125V159.25a4.504 4.504 0 0 0-4.499-4.5z"></path><linearGradient id="z" x1="266.473" x2="284.951" y1="566.785" y2="566.785" gradientTransform="rotate(-7.161 276.164 563.14)" gradientUnits="userSpaceOnUse"><stop offset="0" stop-color="#00e2ec"></stop><stop offset="1" stop-color="#0090b2"></stop></linearGradient><path fill="url(#z)" d="m271.821 579.296-1.632-5.772 5.172-1.463a5.507 5.507 0 0 0 3.797-6.79 5.507 5.507 0 0 0-6.79-3.797l-5.108 1.446-1.634-5.773 5.11-1.447c6.108-1.724 12.471 1.839 14.197 7.939 1.724 6.104-1.838 12.47-7.939 14.194l-5.173 1.463z"></path><linearGradient id="A" x1="281.949" x2="348.991" y1="550.055" y2="550.055" gradientUnits="userSpaceOnUse"><stop offset="0" stop-color="#a281ff"></stop><stop offset="1" stop-color="#ff57bd"></stop></linearGradient><path fill="url(#A)" d="M341.293 530.48c-9.472 6.709-19.129 13.109-29.111 18.684-4.985 2.766-15.882 8.896-22.599 10.169-2.095.396-5.132.46-6.895.224v.003c-1.039 1.271-1.481 7.61 2.129 10.024.416.023.828.041 1.231.045 1.844.013 3.572-.164 5.241-.419 3.328-.526 6.415-1.38 9.406-2.354 5.967-1.972 11.55-4.446 17.003-7.092 10.875-5.326 21.204-11.408 31.293-17.762l-7.698-11.522z"></path><path fill="#00CFFF" d="M294.839 569.014a.518.518 0 0 1-.188-.036c-1.548-.628-2.659-1.759-3.302-3.361-.942-2.348-.641-5.338.142-7.078a.5.5 0 1 1 .912.41c-.68 1.51-.955 4.229-.126 6.296.538 1.341 1.463 2.285 2.749 2.806a.5.5 0 0 1-.187.963zM305.024 565.815a.494.494 0 0 1-.276-.084c-2.034-1.353-3.321-3.512-3.624-6.08-.271-2.288.282-4.684 1.343-5.825a.5.5 0 1 1 .733.68c-.721.776-1.345 2.803-1.083 5.028.19 1.607.897 3.843 3.185 5.365a.5.5 0 0 1-.278.916z"></path><linearGradient id="B" x1="354.624" x2="403.51" y1="505.104" y2="553.991" gradientUnits="userSpaceOnUse"><stop offset="0" stop-color="#00e2ec"></stop><stop offset="1" stop-color="#0090b2"></stop></linearGradient><path fill="url(#B)" d="m400.717 546.951 39.408-29.576c-.401-1.946-.999-3.559-1.776-4.888-2.617-4.474-7.262-5.737-13.224-5.737h-47.792c-7.732 0-7.708 1.375-20.783 9.701l-40.353 27.078 84.52 3.422z"></path><linearGradient id="C" x1="391.75" x2="443.104" y1="541.092" y2="541.092" gradientUnits="userSpaceOnUse"><stop offset="0" stop-color="#3ec6a8"></stop><stop offset="1" stop-color="#ffe2a8"></stop></linearGradient><path fill="url(#C)" d="m436.549 510.19-.002-.008L391.75 546l11.5 26 39.854-41-2.979-13.625c-.669-3.249-1.893-5.562-3.576-7.185z"></path><linearGradient id="D" x1="413.784" x2="437.933" y1="540.178" y2="540.178" gradientUnits="userSpaceOnUse"><stop offset="0" stop-color="#a281ff"></stop><stop offset="1" stop-color="#ff57bd"></stop></linearGradient><path fill="url(#D)" d="M436.281 532.455c-2.387-5.587-8.85-8.181-14.437-5.794l-1.38.589c-5.586 2.387-8.18 8.851-5.794 14.437l5.509 12.896 17.752-18.263-1.65-3.865z"></path><linearGradient id="E" x1="310.25" x2="403.25" y1="556.489" y2="556.489" gradientUnits="userSpaceOnUse"><stop offset="0" stop-color="#3ec6a8"></stop><stop offset="1" stop-color="#ffe2a8"></stop></linearGradient><path fill="url(#E)" d="M403.25 572v-17.021c0-7.732-6.268-14-14-14h-65c-7.732 0-14 6.268-14 14V572h93z"></path><linearGradient id="F" x1="330.5" x2="385.167" y1="550.822" y2="550.822" gradientUnits="userSpaceOnUse"><stop offset="0" stop-color="#a281ff"></stop><stop offset="1" stop-color="#ff57bd"></stop></linearGradient><path fill="url(#F)" d="M344.5 560.667h26.667c7.732 0 14-6.268 14-14v-5.688H330.5v5.688c0 7.732 6.268 14 14 14z"></path><linearGradient id="G" x1="362.842" x2="420.024" y1="448.604" y2="448.604" gradientUnits="userSpaceOnUse"><stop offset="0" stop-color="#a281ff"></stop><stop offset="1" stop-color="#ff57bd"></stop></linearGradient><path fill="url(#G)" d="M420.024 461.875a182.745 182.745 0 0 0-1.663-2.299c-7.299-9.889-11.861-16.764-15.861-20.514-3.84-3.6-8.541-3.729-10.75-3.729h-24.375c-4 0-5.188 3.916-4.208 6.249l12.15 20.292h44.707z"></path><linearGradient id="H" x1="338.492" x2="449.269" y1="483.565" y2="483.565" gradientUnits="userSpaceOnUse"><stop offset="0" stop-color="#3ec6a8"></stop><stop offset="1" stop-color="#ffe2a8"></stop></linearGradient><path fill="url(#H)" d="M338.492 468.404c5.675-3.737 32.38-12.476 67.508-10.237 30.083 1.917 40.79 12.391 42.5 17.334 1.5 4.334.75 8.75-1.742 11.873-2.574 3.226-16.936 17.272-28.43 21.449s9.673-18.824 2.339-27.49-16.825-17.071-49.5-15l-32.675 2.071z"></path><linearGradient id="I" x1="362.166" x2="417.753" y1="462.904" y2="462.904" gradientUnits="userSpaceOnUse"><stop offset="0" stop-color="#7d59d0"></stop><stop offset="1" stop-color="#7c18a1"></stop></linearGradient><path fill="url(#I)" d="M417.753 459.48c-3.545-.584-7.444-1.039-11.753-1.313a177.089 177.089 0 0 0-32.375.894l-11.458 6.107 13.935.931c8.94-.296 15.968.271 21.604 1.443l6.878.459 13.169-8.521z"></path><linearGradient id="J" x1="353.096" x2="421.252" y1="514.15" y2="514.15" gradientUnits="userSpaceOnUse"><stop offset="0" stop-color="#a281ff"></stop><stop offset="1" stop-color="#ff57bd"></stop></linearGradient><path fill="url(#J)" d="M353.096 506c.611 9.103 8.168 16.301 17.425 16.301h33.305c9.257 0 16.814-7.198 17.425-16.301h-68.155z"></path><linearGradient id="K" x1="347.053" x2="408.717" y1="457.276" y2="518.94" gradientUnits="userSpaceOnUse"><stop offset="0" stop-color="#fff"></stop><stop offset="1" stop-color="#6efffb"></stop></linearGradient><path fill="url(#K)" d="M426.835 495.917c-3.335 10.084-7.691 13.333-12.751 14.75-8.333 2.333-17.333 2.917-36.497 2.917-15.649 0-32.586-3.917-32.586-3.917-11.833-2.833-13.563-6.917-15.833-16.5 0 0-.787-4.82-1-7.24-1.167-13.26 6.14-16.418 15.167-19.176 9-2.75 15.833-4.333 32.667-4.417 19-.095 36.333 5.166 36.333 5.166 10.219 3.688 15.339 7.567 15.89 17.007.192 3.326-.535 8.824-1.39 11.41z"></path><linearGradient id="L" x1="335.569" x2="419.511" y1="488.198" y2="488.198" gradientUnits="userSpaceOnUse"><stop offset="0" stop-color="#3ec6a8"></stop><stop offset="1" stop-color="#ffe2a8"></stop></linearGradient><path fill="url(#L)" d="M338.25 476.875c3.076-2.186 18.917-7.54 39.917-7.374s38 5.248 40.5 10.915-1.029 18.266-4.362 21.599S397 507.5 379.5 506.75s-36.608-3.466-39.833-7.583c-3.917-5-6.167-18.917-1.417-22.292z"></path><linearGradient id="M" x1="434.075" x2="449.269" y1="485.563" y2="485.563" gradientUnits="userSpaceOnUse"><stop offset="0" stop-color="#a281ff"></stop><stop offset="1" stop-color="#ff57bd"></stop></linearGradient><path fill="url(#M)" d="M446.758 487.374c2.492-3.123 3.242-7.539 1.742-11.873-.322-.931-.963-2.057-1.991-3.284-7.117 1.622-12.434 7.978-12.434 15.587v7.667c0 1.182.137 2.33.38 3.438 6.015-4.827 10.903-9.781 12.303-11.535z"></path><path fill="#FFF" d="M380.75 500.918c-4.301 0-8.01 2.17-9.79 5.315 2.839.222 5.71.396 8.54.517 3.999.172 7.809.189 11.354.078-1.627-3.466-5.536-5.91-10.104-5.91z"></path><linearGradient id="N" x1="351.051" x2="365.949" y1="495.843" y2="487.242" gradientUnits="userSpaceOnUse"><stop offset="0" stop-color="#3369ff"></stop><stop offset=".119" stop-color="#305ddb"></stop><stop offset=".356" stop-color="#2c4799"></stop><stop offset=".571" stop-color="#283665"></stop><stop offset=".757" stop-color="#25293f"></stop><stop offset=".906" stop-color="#242228"></stop><stop offset="1" stop-color="#231f20"></stop></linearGradient><path fill="url(#N)" d="m365.832 487.039-2.829-2.828-4.503 4.504-4.503-4.504-2.829 2.828 4.504 4.504-4.504 4.503 2.829 2.828 4.503-4.503 4.503 4.503 2.829-2.828-4.504-4.503z"></path><path fill="#7E59D1" d="M363.003 499.374a.502.502 0 0 1-.354-.146l-4.15-4.149-4.15 4.149a.5.5 0 0 1-.707 0l-2.828-2.828a.5.5 0 0 1 0-.708l4.15-4.149-4.15-4.15a.5.5 0 0 1 0-.707l2.828-2.828a.514.514 0 0 1 .707 0l4.15 4.15 4.15-4.15a.514.514 0 0 1 .707 0l2.828 2.828a.5.5 0 0 1 0 .707l-4.15 4.15 4.15 4.149a.5.5 0 0 1 0 .708l-2.828 2.828a.498.498 0 0 1-.353.146zm-4.503-5.503c.128 0 .256.049.354.146l4.15 4.149 2.121-2.121-4.15-4.149a.5.5 0 0 1 0-.707l4.15-4.15-2.121-2.121-4.15 4.15a.514.514 0 0 1-.707 0l-4.15-4.15-2.121 2.121 4.15 4.15a.5.5 0 0 1 0 .708l-4.15 4.149 2.121 2.121 4.15-4.149a.495.495 0 0 1 .353-.147z"></path><linearGradient id="O" x1="395.301" x2="410.198" y1="497.424" y2="488.823" gradientUnits="userSpaceOnUse"><stop offset="0" stop-color="#3369ff"></stop><stop offset=".119" stop-color="#305ddb"></stop><stop offset=".356" stop-color="#2c4799"></stop><stop offset=".571" stop-color="#283665"></stop><stop offset=".757" stop-color="#25293f"></stop><stop offset=".906" stop-color="#242228"></stop><stop offset="1" stop-color="#231f20"></stop></linearGradient><path fill="url(#O)" d="m410.082 488.621-2.829-2.828-4.503 4.504-4.503-4.504-2.829 2.828 4.504 4.504-4.504 4.503 2.829 2.828 4.503-4.503 4.503 4.503 2.829-2.828-4.504-4.503z"></path><path fill="#7E59D1" d="M407.253 500.956a.502.502 0 0 1-.354-.146l-4.15-4.149-4.15 4.149a.5.5 0 0 1-.707 0l-2.828-2.828a.5.5 0 0 1 0-.708l4.15-4.149-4.15-4.15a.5.5 0 0 1 0-.707l2.828-2.828a.514.514 0 0 1 .707 0l4.15 4.15 4.15-4.15a.514.514 0 0 1 .707 0l2.828 2.828a.5.5 0 0 1 0 .707l-4.15 4.15 4.15 4.149a.5.5 0 0 1 0 .708l-2.828 2.828a.498.498 0 0 1-.353.146zm-4.503-5.503c.128 0 .256.049.354.146l4.15 4.149 2.121-2.121-4.15-4.149a.5.5 0 0 1 0-.707l4.15-4.15-2.121-2.121-4.15 4.15a.514.514 0 0 1-.707 0l-4.15-4.15-2.121 2.121 4.15 4.15a.5.5 0 0 1 0 .708l-4.15 4.149 2.121 2.121 4.15-4.149a.495.495 0 0 1 .353-.147z"></path><path fill="#00CFFF" d="M418.129 459.261c-7.161-9.717-11.673-16.489-15.629-20.198-2.656-2.489-5.722-3.318-8.092-3.593l20.53 25.655 3.191-1.864z"></path><linearGradient id="P" x1="415.948" x2="448.661" y1="536.313" y2="569.025" gradientUnits="userSpaceOnUse"><stop offset="0" stop-color="#c91c91"></stop><stop offset="1" stop-color="#fe6a77"></stop></linearGradient><path fill="url(#P)" d="M449.508 544.809c-.71-3.418-2.494-7.005-5.252-9.686-2.739-2.705-6.176-4.433-9.663-5.273a22.51 22.51 0 0 0-5.388-.635c-.924.006-4.2.319-4.696.428-.016.003-.032.011-.048.015-3.444.621-6.059 3.628-6.059 7.251a7.375 7.375 0 0 0 10.272 6.782c.895-.297 1.991-.539 3.125-.396 1.409.17 2.668.664 3.605 1.379.942.716 1.672 1.7 2.164 3.139.484 1.448.663 3.228.536 5.292-.238 4.087-1.504 8.424-3.358 12.602a59.137 59.137 0 0 1-3.194 6.168 64.522 64.522 0 0 1-1.867 2.967l-.99 1.435a51.23 51.23 0 0 1-.97 1.314l6.55 5.822c.559-.595.966-1.053 1.424-1.579a73.03 73.03 0 0 0 3.75-4.726 69.192 69.192 0 0 0 4.381-6.8c2.654-4.746 4.854-9.979 5.798-15.861.458-2.901.615-6.216-.12-9.638z"></path><path fill="#00CFFF" d="M430.626 543.773a.5.5 0 0 1-.491-.408c-.257-1.381-.113-6.161 2.621-9.345 1.674-1.949 3.968-2.884 6.836-2.8.276.009.493.24.483.516-.009.276-.266.465-.516.484-2.537-.083-4.577.742-6.045 2.451-2.466 2.872-2.621 7.306-2.396 8.51a.5.5 0 0 1-.492.592zM437.757 548.963a.5.5 0 0 1-.48-.64c.511-1.761 3.037-4.148 5.984-4.896 1.786-.454 4.412-.495 6.763 1.883a.5.5 0 0 1-.711.703c-2.018-2.041-4.271-2.005-5.806-1.617-2.576.654-4.844 2.742-5.27 4.207a.5.5 0 0 1-.48.36zM447.539 562.85a.5.5 0 0 1-.478-.353c-.525-1.697-1.636-2.902-3.303-3.58-2.301-.938-5.161-.589-6.26.01a.501.501 0 0 1-.478-.879c1.251-.682 4.378-1.172 7.115-.058 1.93.785 3.272 2.242 3.881 4.212a.499.499 0 0 1-.477.648zM442.938 573.063a.5.5 0 0 1-.471-.333c-.95-2.678-2.753-3.777-4.099-4.229-2.029-.681-3.97-.275-4.512.082a.5.5 0 1 1-.549-.836c.81-.533 3.083-.965 5.379-.194 1.556.521 3.638 1.785 4.723 4.843a.501.501 0 0 1-.471.667z"></path><linearGradient id="Q" x1="414.841" x2="440.389" y1="588.761" y2="588.761" gradientTransform="rotate(-4.726 422.362 587.473)" gradientUnits="userSpaceOnUse"><stop offset="0" stop-color="#00e2ec"></stop><stop offset="1" stop-color="#0090b2"></stop></linearGradient><path fill="url(#Q)" d="m439.477 597.84-5.918-.985.961-5.77a6.21 6.21 0 0 0-1.08-4.66 6.211 6.211 0 0 0-4.059-2.532c-3.396-.563-6.625 1.739-7.192 5.14l-.948 5.7-5.919-.986.949-5.699c1.11-6.663 7.429-11.184 14.096-10.072 3.228.538 6.053 2.3 7.955 4.962a12.17 12.17 0 0 1 2.117 9.134l-.962 5.768z"></path><linearGradient id="R" x1="497.604" x2="596.646" y1="43.605" y2="142.646" gradientUnits="userSpaceOnUse"><stop offset="0" stop-color="#0ff"></stop><stop offset="1" stop-color="#0090b2"></stop></linearGradient><path fill="url(#R)" d="M616.5 119.827a7.154 7.154 0 0 1-7.154 7.155H484.904a7.154 7.154 0 0 1-7.154-7.155V66.423a7.154 7.154 0 0 1 7.154-7.155h124.441a7.154 7.154 0 0 1 7.154 7.155v53.404z"></path><linearGradient id="S" x1="474.75" x2="619.5" y1="93.125" y2="93.125" gradientUnits="userSpaceOnUse"><stop offset="0" stop-color="#c7a0f6"></stop><stop offset="1" stop-color="#fde1a7"></stop></linearGradient><path fill="url(#S)" d="M609.346 129.982H484.904c-5.599 0-10.154-4.556-10.154-10.155V66.423c0-5.599 4.556-10.155 10.154-10.155h124.441c5.599 0 10.154 4.556 10.154 10.155v53.404c.001 5.599-4.555 10.155-10.153 10.155zM484.904 62.268a4.159 4.159 0 0 0-4.154 4.155v53.404a4.159 4.159 0 0 0 4.154 4.155h124.441a4.159 4.159 0 0 0 4.154-4.155V66.423a4.159 4.159 0 0 0-4.154-4.155H484.904z"></path><path fill="#FDE1A7" d="M602 76.125a2.124 2.124 0 0 1-2.125 2.125h-105.5a2.124 2.124 0 1 1 0-4.25h105.5c1.174 0 2.125.951 2.125 2.125zM534.708 88.75h-40.333a2.124 2.124 0 1 0 0 4.25h40.333a2.124 2.124 0 1 0 0-4.25zM599.875 88.75h-24.834a2.124 2.124 0 1 0 0 4.25h24.834a2.124 2.124 0 1 0 0-4.25zM561.541 88.75h-14.666a2.124 2.124 0 1 0 0 4.25h14.666a2.124 2.124 0 1 0 0-4.25zM599.875 103.5h-14.666a2.124 2.124 0 1 0 0 4.25h14.666a2.124 2.124 0 1 0 0-4.25zM569.75 103.5h-75.375a2.124 2.124 0 1 0 0 4.25h75.375a2.124 2.124 0 1 0 0-4.25z"></path><linearGradient id="T" x1="506.184" x2="556.918" y1="116.933" y2="167.668" gradientUnits="userSpaceOnUse"><stop offset="0" stop-color="#c91c91"></stop><stop offset="1" stop-color="#fe6a77"></stop></linearGradient><path fill="url(#T)" d="M558.25 138.5c0-16.845-13.655-30.5-30.5-30.5s-30.5 13.655-30.5 30.5 13.655 30.5 30.5 30.5c.514 0 1.024-.014 1.532-.039L541.586 183v-17.321c9.888-5.044 16.664-15.317 16.664-27.179z"></path><path fill="#FDE1A7" d="M539.745 129.014c0 1.602-.229 3.047-.688 4.336s-1.104 2.402-1.934 3.34-1.826 1.689-2.988 2.256c-1.162.567-2.446.928-3.853 1.084l-.234 5.713c-.02.352-.298.615-.835.791s-1.313.264-2.329.264c-.645 0-1.187-.015-1.626-.044s-.786-.083-1.04-.161-.439-.186-.557-.322a.909.909 0 0 1-.205-.527l-.264-6.914c-.02-.625.01-1.132.088-1.523s.22-.703.425-.938.464-.396.776-.483.684-.132 1.113-.132h.41c1.035 0 1.929-.166 2.681-.498.752-.332 1.372-.771 1.86-1.318a5.048 5.048 0 0 0 1.069-1.934 8.136 8.136 0 0 0 .337-2.373c0-.938-.132-1.797-.396-2.578a5.41 5.41 0 0 0-1.201-2.021c-.537-.566-1.211-1-2.021-1.304-.811-.303-1.763-.454-2.856-.454-.996 0-1.875.098-2.637.293-.762.195-1.416.41-1.963.645s-1.001.45-1.362.645c-.361.195-.64.293-.835.293-.137 0-.264-.044-.381-.132s-.215-.249-.293-.483-.142-.566-.19-.996a14.983 14.983 0 0 1-.073-1.641c0-.684.029-1.182.088-1.494.059-.312.186-.566.381-.762.195-.195.566-.425 1.113-.688s1.201-.508 1.963-.732a21.673 21.673 0 0 1 2.549-.571 17.834 17.834 0 0 1 2.93-.234c2.305 0 4.277.318 5.918.952 1.641.635 2.983 1.49 4.028 2.563a10.005 10.005 0 0 1 2.3 3.691c.488 1.383.732 2.848.732 4.391zm-8.672 25.107c0 .801-.063 1.475-.19 2.021-.127.547-.352.986-.674 1.318-.322.333-.752.571-1.289.718s-1.196.22-1.978.22c-.82 0-1.494-.073-2.021-.22s-.952-.385-1.274-.718c-.322-.332-.547-.771-.674-1.318-.127-.546-.19-1.22-.19-2.021 0-.82.063-1.509.19-2.065s.352-1.006.674-1.348c.322-.341.747-.586 1.274-.732s1.201-.22 2.021-.22c.781 0 1.44.073 1.978.22s.967.391 1.289.732c.322.342.547.791.674 1.348s.19 1.245.19 2.065z"></path><linearGradient id="U" x1="458.11" x2="501.237" y1="242.141" y2="285.268" gradientUnits="userSpaceOnUse"><stop offset="0" stop-color="#0ff"></stop><stop offset=".082" stop-color="#25eced"></stop><stop offset=".211" stop-color="#58d1d4"></stop><stop offset=".342" stop-color="#84bbbf"></stop><stop offset=".473" stop-color="#a8a8ad"></stop><stop offset=".604" stop-color="#c49a9f"></stop><stop offset=".735" stop-color="#d88f96"></stop><stop offset=".867" stop-color="#e48990"></stop><stop offset="1" stop-color="#e8878e"></stop></linearGradient><path fill="url(#U)" d="M498.667 268c-5.5-11.667-7.166-12.833-12-17.5s-8.352-8.274-9.334-7.833c-1.302.583-.999 4 .084 6.917s2.916 4.417 2.916 4.417-3.249-.333-10.166-3.417-12.583-7.917-13.75-6.75 1.166 5.167 1.166 5.167-1.863-1.188-2.333.167c-.227.654.84 2.913 1.75 4.333.829 1.294 3.083 3.583 3.083 3.583s-.499 1 .834 3.167 7.583 8.5 14.083 11.563c4.871 2.295 9.917 2.688 9.917 2.688s-.41 5.484-.224 14.506c4.549-.619 12.072-2.242 18.904-6.1-1.602-6-3.309-11.47-4.93-14.908z"></path><path fill="#1AA9E8" d="M457.787 248.851c.403.509.931.964 1.443 1.413.52.446 1.056.876 1.6 1.296 1.089.836 2.209 1.645 3.36 2.356a.5.5 0 1 1-.519.855c-.008-.005-.021-.013-.028-.019-1.158-.814-2.236-1.696-3.291-2.611a40.417 40.417 0 0 1-1.546-1.413c-.499-.493-1.003-.976-1.428-1.579a.252.252 0 0 1 .061-.353.254.254 0 0 1 .344.049l.004.006zM459.935 256.875c.136-.11.381-.28.615-.338.233-.069.48-.092.712-.068.469.04.884.201 1.273.376a17.93 17.93 0 0 1 2.191 1.245c.692.48 1.331 1.004 1.982 1.475.64.461 1.335.923 1.962 1.026l.023.003a.5.5 0 0 1-.161.988l-.036-.007c-.997-.239-1.658-.804-2.321-1.313-.653-.524-1.26-1.074-1.893-1.561a17.473 17.473 0 0 0-2.024-1.286c-.692-.361-1.446-.602-2.027-.124a.255.255 0 1 1-.324-.395h.001l.027-.021zM480.388 253.825c1.942.458 3.801 1.354 5.483 2.432l.01.006a.5.5 0 1 1-.541.843c-.015-.009-.029-.02-.043-.031-1.519-1.218-3.168-2.246-5.019-2.902a.184.184 0 0 1 .103-.352l.007.004z"></path><linearGradient id="V" x1="484.693" x2="540.307" y1="314.909" y2="314.909" gradientUnits="userSpaceOnUse"><stop offset="0" stop-color="#7d59d0"></stop><stop offset="1" stop-color="#7c18a1"></stop></linearGradient><path fill="url(#V)" d="M539.42 286.226c-1.253-4.226-6.17-4.726-6.17-4.726-2.417 3-22.583 33.167-22.583 33.167s-3.234-17.406-7.069-31.761c-6.832 3.857-14.355 5.481-18.904 6.1.151 7.262.688 16.814 2.141 27.661 3.041 22.708 7.414 30.442 12.666 31.5 6 1.208 19.834-5 31.334-12.833s9.838-44.883 8.585-49.108z"></path><path fill="#3369FF" d="M503.245 338.506c-.789 0-1.438-.201-1.915-.637-8.067-7.357-10.131-48.468-10.215-50.214a.498.498 0 0 1 .475-.523.48.48 0 0 1 .523.476c.021.423 2.126 42.442 9.891 49.523 3.897 3.563 25.651-14.689 39.316-27.824a.5.5 0 1 1 .693.721c-3.258 3.131-29.907 28.478-38.768 28.478z"></path><linearGradient id="W" x1="484.985" x2="499.04" y1="299.8" y2="299.8" gradientUnits="userSpaceOnUse"><stop offset="0" stop-color="#3369ff"></stop><stop offset="1" stop-color="#7c18a1"></stop></linearGradient><path fill="url(#W)" d="m498.995 299.574-.682-3.477a2.362 2.362 0 0 0-2.772-1.863s-5.922 1.839-10.556 2.521c.143 2.707.337 5.592.605 8.655 4.343-.234 11.54-3.063 11.54-3.063a2.362 2.362 0 0 0 1.865-2.773z"></path><path fill="#3369FF" d="M485.591 305.91a.5.5 0 0 1-.498-.457c-.249-2.842-.453-5.76-.606-8.672a.5.5 0 0 1 .426-.521c4.542-.668 10.422-2.485 10.48-2.503.238-.049.423-.067.605-.067 1.363 0 2.543.972 2.806 2.312l.682 3.477c.147.751-.007 1.514-.434 2.148s-1.074 1.065-1.825 1.212c-.21.091-7.235 2.835-11.608 3.071h-.028zm-.082-8.73c.141 2.583.321 5.167.537 7.695 4.249-.394 10.834-2.966 10.902-2.993.575-.121.996-.401 1.274-.814.277-.413.378-.91.282-1.398l-.682-3.477a1.865 1.865 0 0 0-2.187-1.469c-.005.006-5.58 1.73-10.126 2.456z"></path><linearGradient id="X" x1="540.076" x2="612.462" y1="269.569" y2="269.569" gradientUnits="userSpaceOnUse"><stop offset="0" stop-color="#042637"></stop><stop offset="1" stop-color="#2335e0"></stop></linearGradient><path fill="url(#X)" d="M606.693 263.807c-3.443-3.432-9.193-7.307-20.068-10.432s-42.375-.125-46 8.5 11.418 21.193 24.146 24.159S608.667 285 612.375 272.5c.911-3.072-5.682-8.693-5.682-8.693z"></path><linearGradient id="Y" x1="555" x2="593.667" y1="267.307" y2="267.307" gradientUnits="userSpaceOnUse"><stop offset="0" stop-color="#00c4c8"></stop><stop offset=".017" stop-color="#07c2c6"></stop><stop offset=".171" stop-color="#42b3b8"></stop><stop offset=".323" stop-color="#75a5ab"></stop><stop offset=".472" stop-color="#9e9aa0"></stop><stop offset=".617" stop-color="#be9298"></stop><stop offset=".756" stop-color="#d58c93"></stop><stop offset=".886" stop-color="#e3888f"></stop><stop offset="1" stop-color="#e8878e"></stop></linearGradient><path fill="url(#Y)" d="M589 247.833c-1.625 5.417 2.834 27.667 4.667 34-5.292 4.042-12.732 5.775-22.167 5.167-11.625-.75-16.5-5.333-16.5-5.333s6.625-7.792 8.166-23.333c1.365-13.77 25.834-10.501 25.834-10.501z"></path><radialGradient id="Z" cx="582.813" cy="233.364" r="53.768" gradientTransform="matrix(.3767 -.9263 .5921 .2407 225.122 717.072)" gradientUnits="userSpaceOnUse"><stop offset="0" stop-color="#e8878e"></stop><stop offset=".133" stop-color="#e48990"></stop><stop offset=".265" stop-color="#d88f96"></stop><stop offset=".396" stop-color="#c49a9f"></stop><stop offset=".527" stop-color="#a8a8ad"></stop><stop offset=".658" stop-color="#84bbbf"></stop><stop offset=".789" stop-color="#58d1d4"></stop><stop offset=".918" stop-color="#25eced"></stop><stop offset="1" stop-color="#0ff"></stop></radialGradient><path fill="url(#Z)" d="M593.556 240.12c5.104-6.932 10.798-18.471 1.778-31.037-5.084-7.083-15.339-10.156-20.959-9.583-13.735 1.4-16.124 8.75-16.124 8.75-6.334 6.917-16 38.75-2.751 49 11.399 8.819 25.791-1.69 31.019-8.051a5.748 5.748 0 0 0 9.387-4.45 5.737 5.737 0 0 0-2.35-4.629z"></path><linearGradient id="aa" x1="559.771" x2="601.945" y1="223.231" y2="198.882" gradientUnits="userSpaceOnUse"><stop offset="0" stop-color="#3369ff"></stop><stop offset=".119" stop-color="#305ddb"></stop><stop offset=".356" stop-color="#2c4799"></stop><stop offset=".571" stop-color="#283665"></stop><stop offset=".757" stop-color="#25293f"></stop><stop offset=".906" stop-color="#242228"></stop><stop offset="1" stop-color="#231f20"></stop></linearGradient><path fill="url(#aa)" d="M590.834 214.917c-3.702.081-14.73 4.869-16.646 1.521-1.896-3.313 5.508-7.127 4.125-9.5-1.688-2.896-7.45.208-12.188 2.375-5.875 2.688-10.029 2.546-15.75-3.438-5.438-5.688-5.667-12.625-2.625-14.875 3.56-2.632 7.583-1.833 9.938-.438 2.381 1.412 5.527 5.445 8.25 3.5 2.479-1.771-.531-6.475 3-8.125 3.521-1.646 9.604.792 12.729 4.979s3.202 5.689 8.146 6.396c6.563.938 19.475 4.585 20.188 21.604.583 13.917-8.552 19.319-11.875 21.41s.507-12.406-.375-18.16c-.438-2.853-3.083-7.333-6.917-7.249z"></path><linearGradient id="ab" x1="548.917" x2="566.018" y1="233.058" y2="233.058" gradientUnits="userSpaceOnUse"><stop offset="0" stop-color="#ff57bd"></stop><stop offset="1" stop-color="#dd8a91"></stop></linearGradient><path fill="url(#ab)" d="M565.834 225.5c-.98-.49-6.501 2.667-10.167 5.583-3.29 2.618-7.174 4.05-6.712 5.817s6.879 3.767 6.879 3.767 1.267-3.508 4.417-7.25c3.332-3.959 6.583-7.417 5.583-7.917z"></path><path fill="#9F36AD" d="M558.022 251.1c-.308 0-.642-.034-1.002-.111-3.365-.718-4.722-5.033-4.475-7.049a.5.5 0 1 1 .993.121c-.184 1.505.85 5.344 3.691 5.951 2.27.481 2.814-1.136 2.836-1.205a.494.494 0 0 1 .629-.324.5.5 0 0 1 .324.628c-.242.757-1.157 1.989-2.996 1.989z"></path><path fill="#212F66" d="M572.057 236.397a2.532 2.532 0 0 1-3.573.262 2.533 2.533 0 0 1-.263-3.575l4.063-4.704a2.532 2.532 0 0 1 3.573-.262 2.533 2.533 0 0 1 .263 3.575l-4.063 4.704z"></path><path fill="#00E2EC" d="M570.492 234.586a.932.932 0 0 1-1.41-1.217l1.493-1.729a.93.93 0 1 1 1.409 1.218l-1.492 1.728z"></path><path fill="#212F66" d="M557.934 226.313a2.48 2.48 0 1 1-3.755-3.243l3.978-4.605a2.48 2.48 0 1 1 3.755 3.243l-3.978 4.605z"></path><path fill="#00E2EC" d="M556.402 224.541a.913.913 0 0 1-1.381-1.192l1.462-1.693a.911.911 0 1 1 1.38 1.193l-1.461 1.692z"></path><linearGradient id="ac" x1="590.834" x2="606.677" y1="228.503" y2="228.503" gradientUnits="userSpaceOnUse"><stop offset="0" stop-color="#994574"></stop><stop offset="1" stop-color="#43256f"></stop></linearGradient><path fill="url(#ac)" d="M606.667 226.417c-.542-13.104-15.833-11.5-15.833-11.5s2.541 1.771 3.417 7.5c1.045 6.835-.929 13.61-2.58 16.792a5.753 5.753 0 0 1 3.609 2.942c3.281-1.87 11.728-7.499 11.387-15.734z"></path><linearGradient id="ad" x1="572.332" x2="572.332" y1="569.793" y2="397.266" gradientUnits="userSpaceOnUse"><stop offset="0" stop-color="#042637"></stop><stop offset="1" stop-color="#2335e0"></stop></linearGradient><path fill="url(#ad)" d="M611.945 568.923c-.077-14.402-.112-29.57-.112-37.09 0-16.5 1.667-70.334.167-85.5s-5-44.666-5-44.666-28.473 3.464-46.016 2.114c-18.817-1.447-28.076-6.516-28.076-6.516-.236 4.256-1.949 46.625.203 71.507 2.832 32.734 9.061 78.213 12.039 98.853 4.039 1.469 12.684 2.865 21.172.748.633-22.287 1.682-52.35 2.011-62.873.5-16 2.834-44 2.834-44s5.999 40.499 9.333 60.333c2.037 12.117 5.005 31.319 7.35 47.13 5.338.948 14.917 1.269 24.095-.04z"></path><linearGradient id="ae" x1="528.561" x2="591.977" y1="341.424" y2="341.424" gradientUnits="userSpaceOnUse"><stop offset="0" stop-color="#c91c91"></stop><stop offset="1" stop-color="#fe6a77"></stop></linearGradient><path fill="url(#ae)" d="M528.957 394.141c3.613 3.647 16.318 13.994 62.318 7.744-1.583-16-6.441-49.552-5.108-62.385s5.81-54.438 5.81-54.438-15.143 3.604-26.81 1.104S548.333 279 548.333 279s-9.583 21.5-15.583 63-3.793 52.141-3.793 52.141z"></path><path fill="#FFA2BA" d="M559.751 404.234a.5.5 0 0 1-.499-.469c-1.007-15.894 3.969-103.505 5.418-117.65a.5.5 0 1 1 .994.101c-1.447 14.13-6.419 101.625-5.414 117.486a.499.499 0 0 1-.468.53c-.011.002-.021.002-.031.002z"></path><path fill="#212F66" d="M571.748 465.912a.5.5 0 0 1-.493-.426c-.456-3.045-1.079-7.59-1.681-11.985-.857-6.262-1.829-13.36-2.043-13.951-.307-.797-5.667-5.664-7.972-7.537a.499.499 0 1 1 .631-.775c1.129.917 7.795 6.674 8.277 7.962.235.628.95 5.792 2.098 14.167.601 4.392 1.223 8.933 1.678 11.972a.5.5 0 0 1-.495.573z"></path><linearGradient id="af" x1="527.195" x2="591.746" y1="399.669" y2="399.669" gradientUnits="userSpaceOnUse"><stop offset="0" stop-color="#fe6a77"></stop><stop offset="1" stop-color="#ff57bd"></stop></linearGradient><path fill="url(#af)" d="M530.719 392.386c3.373 3.291 8.185 5.193 13.113 6.415 4.967 1.21 10.177 1.735 15.404 1.914 10.48.321 21.074-.72 31.568-2.298l.941 6.936c-10.819 1.279-21.77 2.023-32.804 1.341-5.51-.363-11.05-1.084-16.503-2.593-2.723-.761-5.423-1.725-8.024-3.03-2.586-1.297-5.127-2.988-7.22-5.175l3.525-3.51z"></path><linearGradient id="ag" x1="550.316" x2="580.44" y1="284.496" y2="284.496" gradientUnits="userSpaceOnUse"><stop offset="0" stop-color="#fe6a77"></stop><stop offset="1" stop-color="#ff57bd"></stop></linearGradient><path fill="url(#ag)" d="M554.697 278.772c.019.027.431.352.82.589a17.2 17.2 0 0 0 1.324.745c.935.478 1.936.903 2.956 1.28 2.047.751 4.19 1.3 6.357 1.655a36.58 36.58 0 0 0 13.07-.238l1.215 6.894c-5.133.804-10.4.684-15.461-.368a41.003 41.003 0 0 1-7.415-2.272 33.309 33.309 0 0 1-3.552-1.723 23.526 23.526 0 0 1-1.754-1.092c-.595-.435-1.172-.805-1.942-1.68l4.382-3.79z"></path><path fill="#FFA2BA" d="M567.545 407.452c-2.943 0-5.848-.088-8.634-.26-6.425-.424-11.7-1.253-16.605-2.61-3.048-.852-5.702-1.854-8.115-3.064-2.943-1.477-5.419-3.252-7.356-5.276a.5.5 0 0 1 .009-.7l3.523-3.51a.5.5 0 0 1 .702-.003c2.86 2.79 7.074 4.848 12.884 6.287 4.423 1.077 9.429 1.699 15.301 1.899 1.276.039 2.558.059 3.839.059 8.192 0 16.975-.747 27.639-2.351a.5.5 0 0 1 .569.427l.941 6.936a.497.497 0 0 1-.437.563c-9.249 1.093-16.958 1.603-24.26 1.603zm-39.646-11.553c1.806 1.798 4.07 3.385 6.74 4.724 2.354 1.183 4.95 2.162 7.935 2.996 4.836 1.338 10.048 2.156 16.401 2.575 2.763.171 5.646.258 8.569.258 7.128 0 14.652-.489 23.638-1.537l-.806-5.929c-10.488 1.56-19.171 2.287-27.285 2.287-1.292 0-2.582-.02-3.871-.059-5.943-.203-11.016-.834-15.507-1.929-5.754-1.426-10.009-3.457-12.986-6.203l-2.828 2.817zM573.706 290.721c-2.977 0-5.947-.304-8.828-.902a41.6 41.6 0 0 1-7.506-2.301 33.835 33.835 0 0 1-3.605-1.749 24.136 24.136 0 0 1-1.791-1.116l-.229-.166c-.537-.387-1.093-.787-1.805-1.596a.497.497 0 0 1 .048-.709l4.381-3.789a.498.498 0 0 1 .739.094l.001-.001c.021 0 .354.255.668.447.39.245.822.488 1.291.727.867.443 1.844.865 2.902 1.256a34.295 34.295 0 0 0 6.266 1.631c4.231.694 8.654.614 12.892-.234a.5.5 0 0 1 .59.404l1.215 6.894a.503.503 0 0 1-.415.581 44.42 44.42 0 0 1-6.814.529zm-22.671-8.12c.478.486.877.774 1.295 1.075l.224.162c.522.359 1.084.709 1.705 1.061a32.8 32.8 0 0 0 3.499 1.696 40.609 40.609 0 0 0 7.323 2.244 42.993 42.993 0 0 0 14.778.44l-1.038-5.888a37.23 37.23 0 0 1-12.747.144 35.251 35.251 0 0 1-6.448-1.68 27.658 27.658 0 0 1-3.012-1.304c-.494-.252-.953-.51-1.362-.767a9.636 9.636 0 0 1-.54-.364l-3.677 3.181z"></path><linearGradient id="ah" x1="531.549" x2="567.147" y1="581.227" y2="616.826" gradientUnits="userSpaceOnUse"><stop offset="0" stop-color="#05c5da"></stop><stop offset="1" stop-color="#5860c4"></stop></linearGradient><path fill="url(#ah)" d="M545.15 567.625c.218 1.509.419 2.896.6 4.125 2.16 14.715 3.149 21.197 2.417 23.417-4.604 13.958-26.442 17.084-27.167 19.5-.625 2.083.434 4.359 1.625 5.208 4.125 2.938 33.373.943 37.209.292 4.666-.792 7.416-2.667 7.5-4.167.065-1.165-1.333-12.667-1.5-23-.057-3.537.159-13.029.488-24.627-8.488 2.117-17.133.721-21.172-.748z"></path><linearGradient id="ai" x1="587.85" x2="636.763" y1="598.81" y2="598.81" gradientUnits="userSpaceOnUse"><stop offset="0" stop-color="#05c5da"></stop><stop offset="1" stop-color="#5860c4"></stop></linearGradient><path fill="url(#ai)" d="M594.5 613.5c1.166 3.667 3.417 4.001 7.417 5.917s21.251 9.832 28.001 9.249 6.916-2.499 6.833-4.166-4.166-6.083-10-10.5-13.918-9.833-14.334-11.083c-.227-.681-.379-16.791-.472-33.994-9.179 1.31-18.758.988-24.096.04 1.493 10.068 2.733 18.766 3.317 23.37 1.501 11.834 2.168 17.5 3.334 21.167z"></path><linearGradient id="aj" x1="593.768" x2="636.763" y1="619.666" y2="619.666" gradientUnits="userSpaceOnUse"><stop offset="0" stop-color="#a281ff"></stop><stop offset="1" stop-color="#ff57bd"></stop></linearGradient><path fill="url(#aj)" d="M601.917 619.417c4 1.916 21.251 9.832 28.001 9.249s6.916-2.499 6.833-4.166c-.017-.344-.213-.81-.55-1.362-1.461 1.054-4.351 2.365-9.284 1.696-11.227-1.521-31.094-11.454-33.149-14.199.229 1.088.468 2.032.732 2.865 1.166 3.667 3.417 4.001 7.417 5.917z"></path><linearGradient id="ak" x1="520.814" x2="567.336" y1="617.121" y2="617.121" gradientUnits="userSpaceOnUse"><stop offset="0" stop-color="#a281ff"></stop><stop offset="1" stop-color="#ff57bd"></stop></linearGradient><path fill="url(#ak)" d="M522.625 619.875c4.125 2.938 33.373.943 37.209.292 4.666-.792 7.416-2.667 7.5-4.167.019-.328-.08-1.479-.233-3.193-2.652 1.209-8.061 3.17-17.101 4.318-15.25 1.938-27.313-.375-29-2.458-.625 2.083.434 4.359 1.625 5.208z"></path><linearGradient id="al" x1="597.962" x2="612.062" y1="582.448" y2="582.448" gradientUnits="userSpaceOnUse"><stop offset="0" stop-color="#8c6ae2"></stop><stop offset="1" stop-color="#5a55f8"></stop></linearGradient><path fill="url(#al)" d="M612.062 585.584c-.018-1.994-.035-4.095-.051-6.271h-7.319a6.75 6.75 0 0 0-6.729 6.271h14.099z"></path><linearGradient id="am" x1="597.938" x2="612.156" y1="591.084" y2="591.084" gradientUnits="userSpaceOnUse"><stop offset="0" stop-color="#8c6ae2"></stop><stop offset="1" stop-color="#5a55f8"></stop></linearGradient><path fill="url(#am)" d="M612.156 594c-.024-1.756-.048-3.717-.069-5.833h-14.149V594h14.218z"></path><linearGradient id="an" x1="597.938" x2="612.684" y1="599.947" y2="599.947" gradientUnits="userSpaceOnUse"><stop offset="0" stop-color="#8c6ae2"></stop><stop offset="1" stop-color="#5a55f8"></stop></linearGradient><path fill="url(#an)" d="M612.196 596.583h-14.258a6.753 6.753 0 0 0 6.753 6.729h7.992c-.131-.154-.232-.294-.267-.396-.082-.25-.156-2.603-.22-6.333z"></path><linearGradient id="ao" x1="546.601" x2="555.933" y1="581.465" y2="581.465" gradientUnits="userSpaceOnUse"><stop offset="0" stop-color="#5a55f8"></stop><stop offset="1" stop-color="#8c6ae2"></stop></linearGradient><path fill="url(#ao)" d="M555.933 585.375v-2.285a5.534 5.534 0 0 0-5.533-5.534h-3.799c.445 3.052.813 5.63 1.099 7.819h8.233z"></path><linearGradient id="ap" x1="547.318" x2="555.933" y1="592.611" y2="592.611" gradientUnits="userSpaceOnUse"><stop offset="0" stop-color="#5a55f8"></stop><stop offset="1" stop-color="#8c6ae2"></stop></linearGradient><path fill="url(#ap)" d="M548.024 588c.439 3.815.513 6.045.143 7.167a16.356 16.356 0 0 1-.849 2.055h3.081a5.534 5.534 0 0 0 5.533-5.534V588h-7.908z"></path><linearGradient id="aq" x1="498" x2="548.5" y1="395.844" y2="395.844" gradientUnits="userSpaceOnUse"><stop offset="0" stop-color="#7c18a1"></stop><stop offset="1" stop-color="#042637"></stop></linearGradient><path fill="url(#aq)" d="M548.5 283.833c-3.181 9.826-8.239 35.018-10.667 61.667-2.597 28.506-4.083 43.583-4.333 81.333-.338 51.021 5.55 84.654 5 85.833-.875 1.875-20-3.666-27.5-7.666s-13-9-13-9 10-67 16.5-106 16.5-76 17.25-86.25 1.5-22.25 1.5-22.25 3-3.5 8.5-2.75 6.75 5.083 6.75 5.083z"></path><linearGradient id="ar" x1="527.569" x2="537.308" y1="353.78" y2="353.78" gradientUnits="userSpaceOnUse"><stop offset="0" stop-color="#7d59d0"></stop><stop offset="1" stop-color="#7c18a1"></stop></linearGradient><path fill="url(#ar)" d="m527.761 349.01-.182 3.457c-.067 1.656.13 3.076 2.713 4.867l5.919 4.303c.363-3.38.732-6.879 1.097-10.596l-6.428-4.907c-1.921-.884-3.052 1.22-3.119 2.876z"></path><linearGradient id="as" x1="532.101" x2="541.043" y1="322.297" y2="322.297" gradientUnits="userSpaceOnUse"><stop offset="0" stop-color="#7d59d0"></stop><stop offset="1" stop-color="#7c18a1"></stop></linearGradient><path fill="url(#as)" d="M535.405 315.549c-2.405-.924-3.052 1.221-3.119 2.876l-.182 3.457c-.067 1.656.67 2.699 2.875 4.159l4.66 3.226c.441-3.382.912-6.688 1.403-9.884l-5.637-3.834z"></path><linearGradient id="at" x1="534.369" x2="556.901" y1="278.44" y2="278.44" gradientUnits="userSpaceOnUse"><stop offset="0" stop-color="#7d59d0"></stop><stop offset="1" stop-color="#7c18a1"></stop></linearGradient><path fill="url(#at)" d="M540.625 261.875c-.25 9.75 14.25 10.625 15.875 12.792 2.359 3.146-6.333 20.666-9 20.333s-7.305-8.171-9.375-10.375c-1.938-2.063-3.875-4.25-3.75-5.5s4.093-14.459 6.25-17.25z"></path><path fill="#3369FF" d="M545.152 293.999a.498.498 0 0 1-.368-.839c4.43-4.817 9.46-13.631 8.344-15.71-.297-.552-1.822-1.335-3.438-2.165-4.412-2.266-11.079-5.689-10.508-12.309a.508.508 0 0 1 .541-.455.5.5 0 0 1 .455.541c-.513 5.95 5.795 9.189 9.969 11.333 1.984 1.019 3.418 1.755 3.861 2.581 1.604 2.989-4.584 12.614-8.488 16.86a.496.496 0 0 1-.368.163z"></path><linearGradient id="au" x1="576.759" x2="633" y1="403.647" y2="403.647" gradientUnits="userSpaceOnUse"><stop offset="0" stop-color="#7c18a1"></stop><stop offset="1" stop-color="#042637"></stop></linearGradient><path fill="url(#au)" d="M586.375 295.625c-1.25 4.875-7.722 53.636-9.042 103.709-1.318 49.999-.199 118.023 1.667 120.666 2.001 2.834 20.584-3.083 32.667-7 11.459-3.715 21.333-9.667 21.333-9.667s-1.333-57.999-1.333-80.666S623.75 297.5 623.75 297.5s-7.11-8.973-19.25-10.75-18.125 8.875-18.125 8.875z"></path><linearGradient id="av" x1="569.741" x2="592.75" y1="329.048" y2="329.048" gradientUnits="userSpaceOnUse"><stop offset="0" stop-color="#7d59d0"></stop><stop offset="1" stop-color="#7c18a1"></stop></linearGradient><path fill="url(#av)" d="m592.75 319.836-20.124 7.875c-2.709 1.081-2.942 2.503-2.875 4.159l.182 3.457c.067 1.655 1.068 3.257 3.119 2.876l18.505-7.96c.38-3.628.777-7.103 1.193-10.407z"></path><linearGradient id="aw" x1="569.706" x2="589.554" y1="360.89" y2="360.89" gradientUnits="userSpaceOnUse"><stop offset="0" stop-color="#7d59d0"></stop><stop offset="1" stop-color="#7c18a1"></stop></linearGradient><path fill="url(#aw)" d="m589.554 352.996-16.963 5.238c-2.709 1.081-2.942 2.503-2.875 4.159l.182 3.457c.067 1.655 1.068 3.257 3.119 2.876l15.834-5.492c.221-3.472.456-6.889.703-10.238z"></path><path fill="#3369FF" d="M571.943 338.709a.501.501 0 0 1-.478-.352 4.64 4.64 0 0 1-.199-1.177l-.181-3.451c-.069-1.685.121-3.426 3.188-4.65l17.827-6.976a.5.5 0 0 1 .365.932l-17.824 6.975c-2.468.984-2.618 2.194-2.558 3.673l.181 3.451c.014.329.065.639.155.928a.498.498 0 0 1-.476.647zM571.908 369.232a.501.501 0 0 1-.478-.352 4.64 4.64 0 0 1-.199-1.177l-.181-3.451c-.069-1.685.121-3.426 3.188-4.65l15.164-4.684a.5.5 0 0 1 .295.955l-15.126 4.67c-2.433.972-2.583 2.182-2.522 3.661l.181 3.451c.014.329.065.639.155.928a.498.498 0 0 1-.477.649z"></path><path fill="#3369FF" d="M589.505 520.026a.5.5 0 0 1-.494-.432c-6.613-48.217-2.636-192.607 8.513-227.995a.5.5 0 1 1 .953.3c-11.121 35.301-15.078 179.418-8.476 227.558a.498.498 0 0 1-.496.569z"></path><path fill="#9F36AD" d="M618.81 510.847a.5.5 0 0 1-.49-.405c-6.654-34.494-1.473-129.139.23-160.239l.284-5.229a.505.505 0 0 1 .525-.473.5.5 0 0 1 .473.526l-.284 5.229c-1.701 31.071-6.878 125.623-.246 159.996a.5.5 0 0 1-.492.595z"></path><linearGradient id="ax" x1="597" x2="631.669" y1="421.69" y2="421.69" gradientUnits="userSpaceOnUse"><stop offset="0" stop-color="#7c1da5"></stop><stop offset="1" stop-color="#3c2068"></stop></linearGradient><path fill="url(#ax)" d="M631.079 405.505c-9.731 2.959-24.739 7.661-30.87 10.328-1.917.834-3.209 2.302-3.209 3.959v15.541c0 1.657 1.219 2.542 2.876 2.542l31.793-13.899-.002-1.309c0-3.78-.221-9.788-.588-17.162z"></path><path fill="#9F36AD" d="M600.338 438.182a.503.503 0 0 1-.431-.245c-.262-.442-.399-.959-.409-1.536l-.279-15.538c-.032-1.81 1.25-3.484 3.43-4.479 4.904-2.239 15.61-5.917 23.729-8.607a.5.5 0 0 1 .315.949c-11.607 3.848-19.777 6.811-23.627 8.568-1.807.824-2.87 2.152-2.846 3.552l.279 15.538c.007.402.098.753.271 1.044a.501.501 0 0 1-.432.754z"></path><path fill="#3369FF" d="M607.084 435.224a.5.5 0 0 1-.5-.5v-11.057c0-1.953 1.627-3.442 3.24-4.052l.881-.339c2.016-.782 5.062-1.964 7.21-2.148.927-.078 1.729.163 2.319.705.602.552.933 1.39.933 2.36v8.592a.5.5 0 0 1-1 0v-8.592c0-.696-.211-1.258-.608-1.623-.379-.349-.922-.499-1.558-.446-2.006.173-4.972 1.323-6.934 2.084l-.89.343c-1.291.487-2.594 1.641-2.594 3.116v11.057a.499.499 0 0 1-.499.5z"></path><linearGradient id="ay" x1="571.621" x2="615.002" y1="283.753" y2="283.753" gradientUnits="userSpaceOnUse"><stop offset="0" stop-color="#7c18a1"></stop><stop offset="1" stop-color="#042637"></stop></linearGradient><path fill="url(#ay)" d="M574 277.5c2.062-2.062 10.523-1.186 19.667-2.667 10.291-1.667 14.833-3.208 15.5-5.5.837-2.874-3.167-6.167-3.167-6.167s9.167 5.334 9 7.667-5.833 17.667-5.833 17.667-10.833 5.167-18.5 8.5-15.166 8.333-17.5 7.167-2-23.834.833-26.667z"></path><path fill="#3369FF" d="M575.23 304.139c-.616-2.872-.739-5.75-.82-8.625-.052-2.875.009-5.752.28-8.623.142-1.436.323-2.87.638-4.299.163-.714.349-1.428.655-2.136.16-.353.336-.709.651-1.046.31-.318.693-.53 1.042-.683 1.436-.59 2.875-.757 4.308-.948a101.03 101.03 0 0 1 4.289-.39c2.854-.212 5.701-.394 8.523-.74a60.179 60.179 0 0 0 8.353-1.638c1.363-.382 2.712-.822 4.001-1.384 1.264-.567 2.568-1.238 3.383-2.264.821-1.018.428-2.506-.23-3.689-.666-1.215-1.576-2.33-2.566-3.339a.093.093 0 0 1-.006-.13.096.096 0 0 1 .125-.01c1.126.904 2.142 1.953 2.92 3.208.387.626.69 1.325.813 2.09.126.751-.011 1.644-.514 2.271-.98 1.235-2.331 1.897-3.64 2.509-1.328.591-2.701 1.05-4.086 1.449a60.896 60.896 0 0 1-8.451 1.724c-2.852.372-5.711.575-8.557.809-1.422.118-2.843.241-4.247.418-1.391.189-2.826.391-4.038.906-.63.265-.94.609-1.202 1.256-.259.606-.435 1.284-.583 1.963-.29 1.366-.459 2.774-.587 4.184a81.594 81.594 0 0 0-.269 8.511c.075 2.832.204 5.7.789 8.425l.003.01a.5.5 0 0 1-.977.211z"></path><path fill="#3369FF" d="M597.249 294.837a.5.5 0 0 1-.475-.654c1.427-4.397 5.532-18.502 5.573-18.644a.495.495 0 0 1 .62-.34.5.5 0 0 1 .341.62c-.042.142-4.152 14.262-5.583 18.673a.5.5 0 0 1-.476.345z"></path><linearGradient id="az" x1="607.331" x2="650.249" y1="365.305" y2="365.305" gradientUnits="userSpaceOnUse"><stop offset="0" stop-color="#7d59d0"></stop><stop offset="1" stop-color="#7c18a1"></stop></linearGradient><path fill="url(#az)" d="M650.249 431.576c-.012-1.029-.464-37.389-3.748-59.076-3.706-24.47-15.668-71-22.751-75-3.603-2.034-16.189 9.168-16.416 34.833-.168 19 6.32 34.17 10.5 51.333 3.916 16.079 10.924 41.884 12 49l.102.677c4.721-1.673 13.827-2.249 20.313-1.767z"></path><linearGradient id="aA" x1="641.136" x2="649.804" y1="409.693" y2="409.693" gradientUnits="userSpaceOnUse"><stop offset="0" stop-color="#3369ff"></stop><stop offset="1" stop-color="#7c18a1"></stop></linearGradient><path fill="url(#aA)" d="m641.136 404.244 1.158 10.903 7.51-.394-.391-9.004c0 .001-2.225-1.595-8.277-1.505z"></path><path fill="#3369FF" d="M642.294 415.647a.499.499 0 0 1-.497-.447l-1.158-10.903a.498.498 0 0 1 .489-.553l.496-.004c5.777 0 7.989 1.538 8.08 1.604a.5.5 0 0 1 .209.385l.391 9.004a.5.5 0 0 1-.474.521l-7.51.394-.026-.001zm-.603-10.907 1.05 9.883 6.541-.343-.357-8.238c-.626-.336-2.8-1.292-7.234-1.302z"></path><linearGradient id="aB" x1="629.936" x2="654.501" y1="450.172" y2="450.172" gradientUnits="userSpaceOnUse"><stop offset="0" stop-color="#c16846"></stop><stop offset=".265" stop-color="#d27565"></stop><stop offset=".531" stop-color="#de7f7b"></stop><stop offset=".781" stop-color="#e58589"></stop><stop offset="1" stop-color="#e8878e"></stop></linearGradient><path fill="url(#aB)" d="M638.5 462.25c2.083-.667 1.375-9.625 1.375-9.625s1.439.751 3.564 5.126 5.713 11.913 7.686 11.124c1.25-.5 1-4.083 1-4.083s1.75-.167 2.125-3.542c.418-3.76.5-14.375-1.25-21.125s-2.75-8.5-2.75-8.5l-.001-.049c-6.486-.482-15.592.094-20.313 1.768 1.149 7.648 1.28 9.34 1.966 13.283 1.002 5.766 4.667 16.241 6.598 15.623z"></path><path fill="#B75334" d="M649.495 455.382c.932 1.418 1.552 2.964 2.034 4.54.473 1.579.769 3.207.877 4.846a.283.283 0 0 1-.563.049 21.314 21.314 0 0 0-1.06-4.654c-.529-1.494-1.201-2.958-2.111-4.21a.501.501 0 1 1 .823-.571zM640.303 447.381c-.15.327-.195.807-.231 1.264-.032.463-.041.938-.039 1.412.006.95.059 1.907.129 2.863a.266.266 0 0 1-.244.286.267.267 0 0 1-.283-.224 43.143 43.143 0 0 1-.366-2.891 19.856 19.856 0 0 1-.079-1.474c.006-.5-.013-1.004.175-1.583l.006-.017a.502.502 0 0 1 .954.309l-.022.055z"></path><path fill="#3369FF" d="M643.193 431.944h-.009a.5.5 0 0 1-.491-.509c.327-19.505-11.185-107.714-28.406-127.162a.5.5 0 1 1 .748-.663c17.37 19.615 28.987 108.255 28.658 127.842a.5.5 0 0 1-.5.492zM316 112.292l-211.428 18.377c-6.439 18.099-8.207 38.119-5.905 60.998C107.209 276.582 170.5 306 199 340.5a61.38 61.38 0 0 1 2.317 3L316 297.75V112.292z"></path><linearGradient id="aC" x1="92.031" x2="309.469" y1="228.148" y2="228.148" gradientUnits="userSpaceOnUse"><stop offset="0" stop-color="#042637"></stop><stop offset="1" stop-color="#2335e0"></stop></linearGradient><path fill="url(#aC)" d="m309.469 120.5-207.823 19.809c-3.99 15.524-4.88 32.462-2.979 51.357 8.152 81.035 66.162 111.529 96.215 144.13l114.587-41.449V120.5z"></path><path fill="#3369FF" d="M205.479 310.445c-14.122-3.012-36.548-17.104-40.452-43.58-2.098-14.229.04-25.959 2.107-37.304 1.876-10.295 3.648-20.02 2.14-30.969-2.3-16.689-15.508-25.945-22.171-28.508l1.795-4.667c8.178 3.146 22.716 13.528 25.329 32.492 1.618 11.742-.31 22.319-2.173 32.548-1.995 10.946-4.058 22.265-2.08 35.678 3.532 23.955 23.792 36.699 36.548 39.42l-1.043 4.89z"></path><linearGradient id="aD" x1="234.667" x2="349.75" y1="177.919" y2="177.919" gradientUnits="userSpaceOnUse"><stop offset=".218" stop-color="#00afaf"></stop><stop offset=".399" stop-color="#00b4b5"></stop><stop offset=".634" stop-color="#00c1c5"></stop><stop offset=".898" stop-color="#00d8e0"></stop><stop offset="1" stop-color="#00e2ec"></stop></linearGradient><path fill="url(#aD)" d="M349.75 118.75c-.5 6.25-2.924 35.177-.917 53.583 4 36.667-12.06 44.331-14.364 57.905C332.97 239.072 340 245 340 245s-8.667 10.833-48.5 4.167-56.833-27.5-56.833-27.5 40.667-45 45.667-74.667 9.953-43.803 36.643-42.401 32.773 14.151 32.773 14.151z"></path><path fill="#13E7ED" d="M340 245s-7.03-5.928-5.53-14.762c2.304-13.574 18.364-21.238 14.364-57.905-2.008-18.406.417-47.333.917-53.583 0 0-.803-1.668-3.078-3.861-1.443 10.783-.173 32.326-.173 41.111 0 9.75 2.5 29-15 46.75-15.914 16.141-17.355 29.39-15.982 48.578C335.056 251.165 340 245 340 245z"></path><linearGradient id="aE" x1="234.667" x2="317.263" y1="177.542" y2="177.542" gradientUnits="userSpaceOnUse"><stop offset="0" stop-color="#34bbff"></stop><stop offset="1" stop-color="#7182e2"></stop></linearGradient><path fill="url(#aE)" d="M296.373 203.895c.499-11.632 10.377-12.145 18.377-46.645 5.25-22.639 1.803-38.888-5.966-52.524-19.598 1.856-24.013 15.942-28.451 42.274-5 29.667-45.667 74.667-45.667 74.667s17 20.833 56.833 27.5c2.94.492 5.69.878 8.3 1.191 9.698-19.111-3.924-34.859-3.426-46.463z"></path><linearGradient id="aF" x1="194.432" x2="294.789" y1="232.144" y2="232.144" gradientUnits="userSpaceOnUse"><stop offset="0" stop-color="#c55dd7"></stop><stop offset=".497" stop-color="#e868ef"></stop><stop offset="1" stop-color="#e9b6f2"></stop></linearGradient><path fill="url(#aF)" d="M294.789 230.13c-1.937-5.106-4.243-9.396-7.039-12.13-7.214-7.054-21.652-8.058-28.75-7.75 0 0-3.5 1.75-11.286-4.28S227 176.25 215 172.25s-21.572 2.368-18.184 23.128C200.833 220 187 250.333 200.5 272c14.315 22.974 44.401 22.739 51.25 19.75 1.175-4.622 6.443-18.956 9.25-22.376 3.156-5.531 18.077-34.884 33.789-39.244z"></path><linearGradient id="aG" x1="244.59" x2="244.59" y1="236.19" y2="171.121" gradientUnits="userSpaceOnUse"><stop offset="0" stop-color="#7558ce"></stop><stop offset="1" stop-color="#e868ef"></stop></linearGradient><path fill="url(#aG)" d="M259 210.25s-3.5 1.75-11.286-4.28S227 176.25 215 172.25c-7.056-2.352-13.268-1.114-16.504 4.521 7.732 18.789 28.15 56.242 34.254 58.729 6.367 2.594 38.752-2.156 57.934-13.823-.914-1.417-1.89-2.656-2.934-3.677-7.214-7.054-21.652-8.058-28.75-7.75z"></path><path fill="#00CFFF" d="M238.43 236.691c-2.641 0-4.672-.241-5.868-.729a.498.498 0 1 1 .377-.925c6.517 2.655 38.569-2.275 57.491-13.783a.501.501 0 0 1 .52.854c-15.707 9.553-40.458 14.583-52.52 14.583z"></path><path fill="#00CFFF" d="M223.945 290.659a.5.5 0 0 1-.394-.808c6.581-8.421 7.814-32.619 7.284-38.809-.499-5.82.386-13.969 3.488-19.053 6.096-9.992 14.068-17.666 19.534-22.569a.499.499 0 1 1 .668.744c-5.419 4.861-13.32 12.465-19.348 22.345-2.984 4.891-3.83 12.789-3.345 18.447.539 6.28-.745 30.875-7.492 39.51a.499.499 0 0 1-.395.193z"></path><linearGradient id="aH" x1="217.908" x2="243.444" y1="267.594" y2="267.594" gradientUnits="userSpaceOnUse"><stop offset="0" stop-color="#00cfff"></stop><stop offset="1" stop-color="#5979fc"></stop></linearGradient><path fill="url(#aH)" d="M243.106 270.569a2.507 2.507 0 0 1-2.717 2.28l-20.193-1.768a2.507 2.507 0 0 1-2.279-2.716l.328-3.747a2.508 2.508 0 0 1 2.716-2.28l20.193 1.768a2.508 2.508 0 0 1 2.28 2.716l-.328 3.747z"></path><path fill="#00CFFF" d="M240.611 273.359a2.97 2.97 0 0 1-.265-.012l-20.193-1.768a2.988 2.988 0 0 1-2.042-1.063 2.984 2.984 0 0 1-.692-2.195l.328-3.747c.141-1.627 1.608-2.882 3.258-2.734l20.193 1.768c.8.07 1.526.447 2.042 1.063.517.616.762 1.395.692 2.195l-.328 3.747a3.025 3.025 0 0 1-2.993 2.746zm-19.87-10.53c-1.03 0-1.908.805-1.997 1.833l-.328 3.747a1.994 1.994 0 0 0 .462 1.465c.345.411.829.663 1.363.709l20.193 1.768a2.018 2.018 0 0 0 2.175-1.826l.328-3.747c.047-.534-.118-1.055-.462-1.465s-.829-.663-1.363-.709l-20.193-1.768a2.152 2.152 0 0 0-.178-.007z"></path><path fill="#3369FF" d="M241.926 294.153c-12.443 0-31.668-4.603-42.274-21.624-8.347-13.396-6.336-30.988-4.392-48 1.238-10.833 2.518-22.035.952-31.633a1 1 0 0 1 1.974-.322c1.611 9.872.315 21.214-.939 32.182-1.905 16.672-3.875 33.911 4.103 46.715 13.887 22.287 43.055 22.393 50.001 19.362a.998.998 0 0 1 1.316.517.999.999 0 0 1-.517 1.316c-1.97.86-5.638 1.487-10.224 1.487z"></path><linearGradient id="aI" x1="261" x2="482.088" y1="280.38" y2="280.38" gradientUnits="userSpaceOnUse"><stop offset="0" stop-color="#c55dd7"></stop><stop offset=".497" stop-color="#e868ef"></stop><stop offset="1" stop-color="#e9b6f2"></stop></linearGradient><path fill="url(#aI)" d="M261.506 268.856C264.583 272.083 272.75 301.5 277 321s15.75 37.5 31.5 36.25 34.5-29 49.25-49.75 42.375-66.5 42.375-66.5 12.446 1.506 27.063.938c16.063-.625 24.438-5.064 29.813-6.625 6.262-1.819 12.396-2.412 13.375-3.563 1.063-1.25.125-2.5-1.125-3.125 3.125-.125 11.023-4.008 11.25-6.125.188-1.75-2.744-1.09-2.744-1.09s4.744-1.848 4.303-3.575c-.467-1.827-13.059-1.085-16.684-1.085s-11.734-.464-19-.625c-7.458-.165-15.542.125-19.75.75 5.25-1.75 13.75-9.598 12.375-12.75-1-2.292-8.875 1.875-14.125 3s-16.741 3.309-26.542 8.208c-10.333 5.167-18.667 13.5-31.833 31.333s-52.25 58.583-52.25 58.583-5.583-13.417-8.75-26.75c-2.38-10.02-4.854-32.932-10.711-48.37-15.712 4.36-30.633 33.713-33.789 39.244a3.52 3.52 0 0 1 .505-.517z"></path><linearGradient id="aJ" x1="261" x2="400.125" y1="299.052" y2="299.052" gradientUnits="userSpaceOnUse"><stop offset="0" stop-color="#7558ce"></stop><stop offset="1" stop-color="#e868ef"></stop></linearGradient><path fill="url(#aJ)" d="M373.333 251.833c-9.5 12.5-15 25.667-22.333 35.333s-31.973 43.378-44.354 41.796C296.5 327.667 291 315.667 286.833 299c-3.607-14.428-6.72-41.206-15.094-47.6-5.352 7.863-9.289 15.433-10.739 17.974.179-.218.349-.394.506-.518C264.583 272.083 272.75 301.5 277 321s15.75 37.5 31.5 36.25 34.5-29 49.25-49.75 42.375-66.5 42.375-66.5c-8.292-.333-17.292-1.667-26.792 10.833z"></path><path fill="#00CFFF" d="M313.798 356.418a.498.498 0 0 1-.39-.187c-13.811-17.166-5.065-44.844.462-51.307a.501.501 0 0 1 .76.65c-5.389 6.3-13.912 33.288-.443 50.029a.5.5 0 0 1-.389.815z"></path><path fill="#00CFFF" d="M307.485 329.515c-.307 0-.608-.019-.902-.056-9.159-1.17-15.21-10.243-20.234-30.338-.873-3.491-1.716-7.702-2.609-12.16-2.717-13.563-6.098-30.441-12.305-35.176a.5.5 0 1 1 .607-.795c6.507 4.963 9.786 21.332 12.679 35.774.891 4.446 1.732 8.646 2.599 12.115 4.842 19.368 10.822 28.493 19.391 29.588 11.409 1.455 34.037-28.535 42.551-39.827l1.341-1.775c3.405-4.488 6.43-9.766 9.633-15.354 3.745-6.534 7.618-13.291 12.701-19.98 9.04-11.894 17.83-11.473 25.583-11.104.545.026 1.087.052 1.627.074.276.011.491.244.479.52s-.257.5-.52.479c-.542-.021-1.087-.048-1.635-.074-7.875-.376-16.017-.766-24.739 10.71-5.044 6.637-8.9 13.365-12.629 19.872-3.219 5.617-6.26 10.922-9.704 15.461l-1.339 1.773c-8.399 11.138-30.366 40.273-42.575 40.273z"></path><path fill="#668DE7" d="M469.677 228.871c-1.236-.317-2.528-.337-3.807-.287-1.281.06-2.563.179-3.838.361-2.55.37-5.087.855-7.61 1.416l-7.579 1.724c-.626.134-1.297.269-1.957.317-.682.048-1.339.028-2-.035-1.311-.143-2.618-.411-3.819-.985a.144.144 0 0 1 .109-.265l.006.002c1.195.427 2.48.6 3.746.665.632.032 1.275.019 1.884-.053.633-.07 1.227-.241 1.866-.38 2.513-.595 5.027-1.261 7.573-1.78 2.543-.532 5.102-1.027 7.698-1.297 2.579-.253 5.257-.454 7.812.293a.158.158 0 0 1-.084.304zM457.252 222.864c3.667-.097 7.298-.565 10.939-1.029 1.819-.25 3.64-.511 5.475-.703 1.832-.185 3.692-.366 5.563-.132a.157.157 0 0 1 .136.175.156.156 0 0 1-.147.137h-.008c-1.813.085-3.617.429-5.433.679-1.814.278-3.637.536-5.468.754-3.653.461-7.363.781-11.061.558a.22.22 0 0 1-.209-.23.224.224 0 0 1 .213-.209z"></path><path fill="#00CFFF" d="M261 269.874a.499.499 0 0 1-.434-.748c.267-.467.618-1.105 1.046-1.885 4.565-8.301 18.457-33.561 33.037-37.611a.5.5 0 0 1 .268.964c-14.174 3.938-27.914 28.92-32.429 37.129-.432.785-.785 1.428-1.054 1.899a.497.497 0 0 1-.434.252z"></path><linearGradient id="aK" x1="294.25" x2="318.75" y1="329.5" y2="329.5" gradientUnits="userSpaceOnUse"><stop offset="0" stop-color="#00cfff"></stop><stop offset="1" stop-color="#5979fc"></stop></linearGradient><path fill="url(#aK)" d="M318.75 331a7 7 0 0 1-7 7h-10.5a7 7 0 0 1-7-7v-3a7 7 0 0 1 7-7h10.5a7 7 0 0 1 7 7v3z"></path><path fill="#00CFFF" d="M311.75 338.5h-10.5c-4.136 0-7.5-3.364-7.5-7.5v-3c0-4.136 3.364-7.5 7.5-7.5h10.5c4.136 0 7.5 3.364 7.5 7.5v3c0 4.136-3.364 7.5-7.5 7.5zm-10.5-17a6.508 6.508 0 0 0-6.5 6.5v3c0 3.584 2.916 6.5 6.5 6.5h10.5c3.584 0 6.5-2.916 6.5-6.5v-3c0-3.584-2.916-6.5-6.5-6.5h-10.5z"></path><linearGradient id="aL" x1="337.677" x2="359.059" y1="282.844" y2="282.844" gradientUnits="userSpaceOnUse"><stop offset="0" stop-color="#00cfff"></stop><stop offset="1" stop-color="#5979fc"></stop></linearGradient><path fill="url(#aL)" d="M355.214 292.296a3.001 3.001 0 0 1-4.24.172s-12.6-7.968-13.297-12.262c1.479-1.622 5.01-6.144 7.052-7.781 2.896 4.574 13.363 12.323 13.363 12.323a3 3 0 0 1 .172 4.239l-3.05 3.309z"></path><path fill="#00CFFF" d="M353.008 293.762a3.493 3.493 0 0 1-2.372-.926c-.451-.275-12.727-8.085-13.452-12.549l-.039-.238.163-.179c.43-.471 1.033-1.188 1.724-2.008 1.739-2.066 3.903-4.637 5.386-5.826l.436-.35.299.472c2.813 4.444 13.134 12.111 13.238 12.188.729.668 1.128 1.531 1.166 2.466a3.474 3.474 0 0 1-.924 2.514l-3.05 3.308a3.51 3.51 0 0 1-2.575 1.128zm-14.789-13.41c.893 3.395 9.647 9.559 13.022 11.694 1.127 1.015 2.708.886 3.605-.089l3.05-3.308a2.481 2.481 0 0 0 .66-1.796 2.489 2.489 0 0 0-.803-1.737c-.376-.275-9.859-7.32-13.127-11.946-1.401 1.26-3.362 3.59-4.831 5.334a91.307 91.307 0 0 1-1.576 1.848z"></path><linearGradient id="aM" x1="268.097" x2="268.097" y1="214.111" y2="171.5" gradientUnits="userSpaceOnUse"><stop offset="0" stop-color="#c55dd7"></stop><stop offset="1" stop-color="#e868ef"></stop></linearGradient><path fill="url(#aM)" d="M291.5 192.5c-5 4.667-26.167 20.833-26.167 20.833s-14.333 1.5-20 .333S273.5 171.5 273.5 171.5l18 21z"></path><linearGradient id="aN" x1="273.473" x2="340.307" y1="113.753" y2="180.587" gradientUnits="userSpaceOnUse"><stop offset="0" stop-color="#c55dd7"></stop><stop offset=".497" stop-color="#e868ef"></stop><stop offset="1" stop-color="#e9b6f2"></stop></linearGradient><path fill="url(#aN)" d="M347 118.25c1 10.917 0 80.25-35.25 81.5-26.233.93-40.25-19.583-40.25-19.583s1.25-67.167 6.25-70.667 38-6.5 49-4S347 118.25 347 118.25z"></path><linearGradient id="aO" x1="303.78" x2="316.477" y1="131.124" y2="143.821" gradientUnits="userSpaceOnUse"><stop offset="0" stop-color="#231f20"></stop><stop offset=".102" stop-color="#262228"></stop><stop offset=".264" stop-color="#2f2a3f"></stop><stop offset=".465" stop-color="#3d3865"></stop><stop offset=".699" stop-color="#504a99"></stop><stop offset=".956" stop-color="#6962db"></stop><stop offset="1" stop-color="#6d66e7"></stop></linearGradient><path fill="url(#aO)" d="M304.375 130.529v13.283c0 2.865 2.125 5.146 5.125 5.021 3.72-.155 4.889-3.276 5.448-6.085.478-2.403 1.248-8.727 1.743-13.001-3.804-.417-9.633.355-12.316.782z"></path><path fill="#5097FF" d="m314.042 136.458-6.792 5.625s.667 3.917 3.917 2.917c2.792-.859 2.875-8.542 2.875-8.542z"></path><linearGradient id="aP" x1="334.701" x2="346.919" y1="133.835" y2="146.053" gradientUnits="userSpaceOnUse"><stop offset="0" stop-color="#231f20"></stop><stop offset=".102" stop-color="#262228"></stop><stop offset=".264" stop-color="#2f2a3f"></stop><stop offset=".465" stop-color="#3d3865"></stop><stop offset=".699" stop-color="#504a99"></stop><stop offset=".956" stop-color="#6962db"></stop><stop offset="1" stop-color="#6d66e7"></stop></linearGradient><path fill="url(#aP)" d="M336.285 132.25v13.132c0 2.674 1.983 4.803 4.784 4.687 3.472-.145 4.563-3.058 5.085-5.68.446-2.243.273-6.387.736-10.376-3.702-1.388-7.828-1.814-10.605-1.763z"></path><path fill="#5097FF" d="m345.121 138.831-6.34 5.25s.623 3.655 3.656 2.722c2.606-.802 2.684-7.972 2.684-7.972z"></path><linearGradient id="aQ" x1="324.125" x2="336.497" y1="146.906" y2="146.906" gradientUnits="userSpaceOnUse"><stop offset="0" stop-color="#7558ce"></stop><stop offset="1" stop-color="#e868ef"></stop></linearGradient><path fill="url(#aQ)" d="M329.833 130.75c1.167 3 7.625 28.25 6.542 30s-12.25 2.313-12.25 2.313 2.408-5.196 3.625-12.979c1.313-8.396 2.083-19.334 2.083-19.334z"></path><path fill="#FFF" d="M305.688 173.563c.688-.875 8.313 1.563 14.938 2.063 2.807.212 6.063.313 6.063.313s-4 10.25-11 10.063c-7.44-.201-10.689-11.564-10.001-12.439z"></path><linearGradient id="aR" x1="175.206" x2="356.534" y1="159.214" y2="159.214" gradientUnits="userSpaceOnUse"><stop offset="0" stop-color="#00afaf"></stop><stop offset="1" stop-color="#00e2ec"></stop></linearGradient><path fill="url(#aR)" d="M295.5 117.333c6.333-3.667 36.667-5.833 60 8.833 4.5-15.167-4.321-55.926-53.979-58.583C253.25 65 233.667 95 213.667 124.667c-15.847 23.505-29.502 30.479-38.46 32.229 3.46.688 8.581 5.032 13.127 13.771 6.628 12.74 13.667 50.083 23.333 64.667 8.89 13.412 19.667 15.667 19.667 15.667s-.95-6.088 2.814-11.59c6.353-9.285 34.353-28.076 45.427-50.833 15.931-32.742 9.092-52.245 15.925-71.245z"></path><path fill="#0FF" d="M355.5 126.167c1.465-4.937 1.516-12.584-.79-20.746-.536 2.234-1.664 4.398-4.043 4.579-9.632.731-11.159-13.805-18.667-14.167-6.917-.333-9.667 6.333-11.5 10.5s-6 7.333-10.827 8.359l-.001.002c12.568-.475 30.671 1.946 45.828 11.473zM290.25 111.5c-6.286 17.787-2.496 27.502-7.75 39.5-7.5 17.125-36.882 20.237-40.25 33.25-1.833 7.083 5 7.083 3.75 14.5-2.58 15.306-27.534 13.537-38.213 29.306 1.247 2.776 2.537 5.252 3.879 7.277 8.89 13.412 19.667 15.667 19.667 15.667s-.95-6.088 2.814-11.59c6.353-9.285 34.353-28.076 45.427-50.833 15.932-32.74 9.093-52.243 15.926-71.243 4.25-18.458 14-28.833 14-28.833s-12.964 5.212-19.25 22.999z"></path><linearGradient id="aS" x1="219.15" x2="273.104" y1="201.846" y2="53.61" gradientUnits="userSpaceOnUse"><stop offset=".267" stop-color="#00a39f"></stop><stop offset="1" stop-color="#00e2ec"></stop></linearGradient><path fill="url(#aS)" d="M211 161.75c7.543-28.616 24.338-67.495 49-81.75s41.532-12.832 60.719-8.688l5.595 1.793c-6.823-2.993-15.013-4.999-24.793-5.522C253.25 65 233.667 95 213.667 124.667c-15.847 23.505-29.502 30.479-38.46 32.229 3.46.688 8.581 5.032 13.127 13.771 2.542 4.887 5.146 13.397 7.934 22.851 0 0 7.065-2.685 14.732-31.768z"></path><linearGradient id="aT" x1="256.094" x2="283.419" y1="161.34" y2="161.34" gradientUnits="userSpaceOnUse"><stop offset="0" stop-color="#9f36ad"></stop><stop offset="1" stop-color="#c5188e"></stop></linearGradient><path fill="url(#aT)" d="m261.654 151.175.451.864.417.764c.278.495.59 1.029.913 1.527a36.373 36.373 0 0 0 2.084 2.958 39.162 39.162 0 0 0 5.044 5.313c1.854 1.615 3.872 3.065 6.03 4.245 2.153 1.167 4.469 2.109 6.825 2.4l-.089 2.256c-2.845.038-5.553-.674-8.116-1.632-2.564-.976-4.993-2.26-7.287-3.76a44.066 44.066 0 0 1-6.447-5.156 41.97 41.97 0 0 1-2.853-3.056 34.532 34.532 0 0 1-1.327-1.655l-.642-.869-.565-.795 5.562-3.404z"></path><linearGradient id="aU" x1="249.903" x2="269.354" y1="112.032" y2="112.032" gradientUnits="userSpaceOnUse"><stop offset="0" stop-color="#7558ce"></stop><stop offset="1" stop-color="#e868ef"></stop></linearGradient><path fill="url(#aU)" d="M269.354 91.103c-2.294 3.172-4.473 6.329-6.134 9.672a43.101 43.101 0 0 0-3.715 10.283c-.784 3.521-1.076 7.11-1.081 10.707.026 3.601.397 7.211.931 10.818l-9.211 1.084c-.365-4.098-.328-8.272.19-12.417a46.251 46.251 0 0 1 3.107-12.133 40.375 40.375 0 0 1 6.368-10.614 49.97 49.97 0 0 1 4.201-4.369 55.044 55.044 0 0 1 4.635-3.736l.709.705z"></path><linearGradient id="aV" x1="278.272" x2="296.024" y1="171.46" y2="171.46" gradientUnits="userSpaceOnUse"><stop offset="0" stop-color="#c5188e"></stop><stop offset="1" stop-color="#9f36ad"></stop></linearGradient><path fill="url(#aV)" d="M295.882 173.633a4.001 4.001 0 0 1-4.827 2.95l-9.721-2.347a4 4 0 0 1-2.95-4.827l.029-.122a4.002 4.002 0 0 1 4.828-2.95l9.72 2.347a4.001 4.001 0 0 1 2.95 4.827l-.029.122z"></path><path fill="#00CFFF" d="M279.817 173.504c-.686-1.547-.227-3.651 1.249-4.805a4.308 4.308 0 0 1 2.574-.945c.457-.023.969.076 1.36.174l1.226.284c1.628.402 3.253.816 4.865 1.287.807.229 1.61.478 2.412.731.39.139.812.259 1.198.423.404.173.768.413 1.076.702a4.92 4.92 0 0 0-1.151-.447c-.413-.094-.816-.131-1.238-.201a85.711 85.711 0 0 1-2.479-.449 117.268 117.268 0 0 1-4.917-1.075l-1.22-.307a4.411 4.411 0 0 0-1.124-.179c-.742-.023-1.483.214-2.119.626a3.868 3.868 0 0 0-1.433 1.771c-.327.752-.413 1.57-.279 2.41z"></path><linearGradient id="aW" x1="241.5" x2="272.5" y1="141.25" y2="141.25" gradientUnits="userSpaceOnUse"><stop offset="0" stop-color="#c91c91"></stop><stop offset="1" stop-color="#fe6a77"></stop></linearGradient><circle cx="257" cy="141.25" r="15.5" fill="url(#aW)"></circle><path fill="#00CFFF" d="M259.243 125.911c1.895.51 3.68 1.44 5.253 2.652a15.655 15.655 0 0 1 3.867 4.527c1.991 3.499 2.442 7.816 1.349 11.703-1.146 3.878-3.845 7.267-7.369 9.198a15.79 15.79 0 0 1-5.665 1.831c-1.974.208-3.981.077-5.867-.468 3.853.673 7.888-.033 11.147-2.029 3.266-1.968 5.787-5.149 6.794-8.81 1.1-3.632.681-7.674-1.063-11.063-1.73-3.407-4.796-6.127-8.446-7.541z"></path><linearGradient id="aX" x1="247.625" x2="261.875" y1="141.625" y2="141.625" gradientUnits="userSpaceOnUse"><stop offset="0" stop-color="#9f36ad"></stop><stop offset="1" stop-color="#c5188e"></stop></linearGradient><circle cx="254.75" cy="141.625" r="7.125" fill="url(#aX)"></circle><path fill="#00CFFF" d="M254.75 149.25c-4.205 0-7.625-3.42-7.625-7.625s3.42-7.625 7.625-7.625 7.625 3.42 7.625 7.625-3.42 7.625-7.625 7.625zm0-14.25c-3.653 0-6.625 2.972-6.625 6.625s2.972 6.625 6.625 6.625 6.625-2.972 6.625-6.625S258.403 135 254.75 135z"></path><linearGradient id="aY" x1="434.293" x2="434.293" y1="182.833" y2="135.5" gradientUnits="userSpaceOnUse"><stop offset="0" stop-color="#0ff" stop-opacity=".25"></stop><stop offset=".085" stop-color="#09fefc" stop-opacity=".271"></stop><stop offset=".225" stop-color="#21fbf3" stop-opacity=".306"></stop><stop offset=".401" stop-color="#49f6e6" stop-opacity=".35"></stop><stop offset=".607" stop-color="#80f0d2" stop-opacity=".402"></stop><stop offset=".835" stop-color="#c6e8ba" stop-opacity=".459"></stop><stop offset="1" stop-color="#fde1a7" stop-opacity=".5"></stop></linearGradient><path fill="url(#aY)" d="M478.542 171.696c0 6.151-4.938 11.137-11.031 11.137h-66.438c-6.092 0-11.031-4.986-11.031-11.137v-25.059c0-6.151 4.939-11.137 11.031-11.137h66.438c6.093 0 11.031 4.986 11.031 11.137v25.059z"></path><linearGradient id="aZ" x1="434.293" x2="434.293" y1="172.667" y2="146" gradientUnits="userSpaceOnUse"><stop offset="0" stop-color="#e9b3f2"></stop><stop offset="1" stop-color="#f9f7ff"></stop></linearGradient><path fill="url(#aZ)" d="M465.042 161.667c0 6.075-4.925 11-11 11h-39.5c-6.075 0-11-4.925-11-11V157c0-6.075 4.925-11 11-11h39.5c6.075 0 11 4.925 11 11v4.667z"></path><linearGradient id="ba" x1="446.354" x2="446.354" y1="172.667" y2="146" gradientUnits="userSpaceOnUse"><stop offset="0" stop-color="#e367f2"></stop><stop offset="1" stop-color="#00e2ec"></stop></linearGradient><path fill="url(#ba)" d="M454.042 146h-26.376c6.075 0 11 4.925 11 11v4.667c0 6.075-4.925 11-11 11h26.376c6.075 0 11-4.925 11-11V157c0-6.075-4.925-11-11-11z"></path><linearGradient id="bb" x1="434.293" x2="434.293" y1="227.333" y2="216.225" gradientUnits="userSpaceOnUse"><stop offset="0" stop-color="#fe6a77"></stop><stop offset="1" stop-color="#c91c91"></stop></linearGradient><ellipse cx="434.292" cy="221.779" fill="url(#bb)" rx="21.417" ry="5.554"></ellipse><ellipse cx="434.292" cy="220.779" fill="#FDE1A7" rx="10.169" ry="2.637"></ellipse><path fill="#FDE1A7" d="M406.333 184.333h-5.292c-6.893 0-12.5-5.607-12.5-12.5v-2h3v2c0 5.238 4.262 9.5 9.5 9.5h5.292v3zM467.542 184.333h-5.709v-3h5.709c5.238 0 9.5-4.262 9.5-9.5v-2h3v2c0 6.893-5.607 12.5-12.5 12.5zM391.542 148.667h-3V146.5c0-6.893 5.607-12.5 12.5-12.5h5.292v3h-5.292c-5.238 0-9.5 4.262-9.5 9.5v2.167zM480.042 148.667h-3V146.5c0-5.238-4.262-9.5-9.5-9.5h-5.709v-3h5.709c6.893 0 12.5 5.607 12.5 12.5v2.167z"></path><linearGradient id="bc" x1="434.125" x2="434.125" y1="220.779" y2="182.813" gradientUnits="userSpaceOnUse"><stop offset="0" stop-color="#0ff" stop-opacity=".25"></stop><stop offset=".085" stop-color="#09fefc" stop-opacity=".271"></stop><stop offset=".225" stop-color="#21fbf3" stop-opacity=".306"></stop><stop offset=".401" stop-color="#49f6e6" stop-opacity=".35"></stop><stop offset=".607" stop-color="#80f0d2" stop-opacity=".402"></stop><stop offset=".835" stop-color="#c6e8ba" stop-opacity=".459"></stop><stop offset="1" stop-color="#fde1a7" stop-opacity=".5"></stop></linearGradient><path fill="url(#bc)" d="M470.084 182.813h-71.917l25.956 37.966h20.315z"></path></svg>